<?xml version="1.0" encoding="UTF-8" standalone="no"?>
<svg
   version="1.0"
   width="1280.000000pt"
   height="640.000000pt"
   viewBox="0 0 1280.000000 640.000000"
   preserveAspectRatio="xMidYMid meet"
   id="svg1"
   sodipodi:docname="flèche.svg"
   inkscape:version="1.4 (86a8ad7, 2024-10-11)"
   xmlns:inkscape="http://www.inkscape.org/namespaces/inkscape"
   xmlns:sodipodi="http://sodipodi.sourceforge.net/DTD/sodipodi-0.dtd"
   xmlns="http://www.w3.org/2000/svg"
   xmlns:svg="http://www.w3.org/2000/svg">
  <defs
     id="defs1" />
  <sodipodi:namedview
     id="namedview1"
     pagecolor="#ffffff"
     bordercolor="#111111"
     borderopacity="1"
     inkscape:showpageshadow="0"
     inkscape:pageopacity="0"
     inkscape:pagecheckerboard="1"
     inkscape:deskcolor="#d1d1d1"
     inkscape:document-units="pt"
     inkscape:zoom="0.94570313"
     inkscape:cx="853.33333"
     inkscape:cy="426.13796"
     inkscape:window-width="1154"
     inkscape:window-height="1000"
     inkscape:window-x="757"
     inkscape:window-y="0"
     inkscape:window-maximized="0"
     inkscape:current-layer="svg1" />
  <metadata
     id="metadata1">
Created by potrace 1.15, written by Peter Selinger 2001-2017
</metadata>
  <g
     transform="translate(0.000000,640.000000) scale(0.100000,-0.100000)"
     fill="#000000"
     stroke="none"
     id="g1"
     style="fill:#e8ecd7;fill-opacity:1">
    <path
       d="M7045 5791 c-91 -41 -132 -136 -122 -286 4 -49 20 -189 36 -310 40 -291 51 -407 54 -545 l2 -115 -120 3 c-524 13 -1482 86 -3110 237 -1797 166 -2234 204 -2725 236 -215 14 -565 17 -642 6 -83 -12 -145 -56 -182 -130 -26 -52 -29 -66 -28 -155 2 -110 14 -170 120 -582 109 -426 143 -644 143 -920 0 -364 -63 -629 -292 -1242 -156 -417 -172 -470 -173 -584 -1 -84 1 -94 29 -140 22 -36 44 -56 83 -76 77 -39 165 -44 442 -24 443 32 806 73 2550 291 2071 259 2672 328 3353 385 265 22 337 24 337 11 0 -5 -13 -61 -29 -123 -35 -135 -77 -256 -178 -518 -107 -277 -123 -326 -130 -405 -7 -88 16 -141 79 -182 39 -26 49 -28 147 -28 128 0 220 22 556 132 1303 427 4179 1685 5153 2254 362 212 449 322 378 474 -58 126 -276 266 -871 560 -1384 683 -3773 1616 -4531 1770 -153 31 -271 33 -329 6z"
       id="path1"
       style="fill:#e8ecd7;fill-opacity:1" />
  </g>
</svg>
