<?xml version="1.0" encoding="UTF-8" standalone="no"?>
<svg
   id="svg"
   version="1.1"
   width="400"
   height="400"
   viewBox="0, 0, 400,400"
   sodipodi:docname="sucreDorge.svg"
   inkscape:version="1.4 (86a8ad7, 2024-10-11)"
   xmlns:inkscape="http://www.inkscape.org/namespaces/inkscape"
   xmlns:sodipodi="http://sodipodi.sourceforge.net/DTD/sodipodi-0.dtd"
   xmlns="http://www.w3.org/2000/svg"
   xmlns:svg="http://www.w3.org/2000/svg">
  <defs
     id="defs1">
    <filter
       style="color-interpolation-filters:sRGB;"
       inkscape:label="Duochrome"
       id="filter1"
       x="0"
       y="0"
       width="1"
       height="1">
      <feColorMatrix
         values="1 0 0 0 0 0 1 0 0 0 0 0 1 0 0 0 0 0 1 0"
         id="feColorMatrix1"
         result="fbSourceGraphic" />
      <feColorMatrix
         result="fbSourceGraphicAlpha"
         in="fbSourceGraphic"
         values="0 0 0 -1 0 0 0 0 -1 0 0 0 0 -1 0 0 0 0 1 0"
         id="feColorMatrix2" />
      <feColorMatrix
         id="feColorMatrix3"
         values="1 0 0 0 0 0 1 0 0 0 0 0 1 0 0 0 0 0 1 0"
         in="fbSourceGraphic"
         result="fbSourceGraphic" />
      <feColorMatrix
         result="fbSourceGraphicAlpha"
         in="fbSourceGraphic"
         values="0 0 0 -1 0 0 0 0 -1 0 0 0 0 -1 0 0 0 0 1 0"
         id="feColorMatrix9" />
      <feColorMatrix
         id="feColorMatrix10"
         type="luminanceToAlpha"
         result="colormatrix1"
         in="fbSourceGraphic" />
      <feFlood
         id="feFlood10"
         flood-opacity="1"
         flood-color="rgb(255,215,0)"
         result="flood1" />
      <feComposite
         id="feComposite10"
         in2="colormatrix1"
         operator="out"
         result="composite1" />
      <feFlood
         id="feFlood11"
         flood-opacity="1"
         flood-color="rgb(255,255,255)"
         result="flood2" />
      <feComposite
         id="feComposite11"
         in2="colormatrix1"
         result="composite2"
         operator="in" />
      <feComposite
         id="feComposite12"
         in="composite2"
         in2="composite1"
         k2="1"
         k3="1"
         operator="arithmetic"
         result="composite3" />
      <feColorMatrix
         id="feColorMatrix12"
         in="composite3"
         type="matrix"
         values="2 -1 0 0 0 0 2 -1 0 0 -1 0 2 0 0 0 0 0 1 0 "
         result="colormatrix2" />
      <feComposite
         id="feComposite13"
         in="colormatrix2"
         in2="composite3"
         operator="arithmetic"
         k2="0"
         result="composite4" />
      <feBlend
         id="feBlend13"
         in="composite4"
         in2="composite3"
         mode="normal"
         result="blend" />
      <feComposite
         id="feComposite14"
         in2="fbSourceGraphic"
         operator="in" />
    </filter>
  </defs>
  <sodipodi:namedview
     id="namedview1"
     pagecolor="#ffffff"
     bordercolor="#111111"
     borderopacity="1"
     inkscape:showpageshadow="0"
     inkscape:pageopacity="0"
     inkscape:pagecheckerboard="1"
     inkscape:deskcolor="#d1d1d1"
     showgrid="false"
     inkscape:zoom="1.4142136"
     inkscape:cx="156.27059"
     inkscape:cy="227.68838"
     inkscape:window-width="1154"
     inkscape:window-height="1000"
     inkscape:window-x="-7"
     inkscape:window-y="0"
     inkscape:window-maximized="0"
     inkscape:current-layer="svg" />
  <g
     id="svgg"
     style="filter:url(#filter1)"
     transform="translate(-0.70711098,0.70710679)">
    <path
       id="path0"
       d="m 104.094,22.9 c -0.506,0.625 -4.55,34.488 -4.222,35.345 0.133,0.345 1.55,1.223 3.149,1.952 5.188,2.364 9.746,5.975 14.023,11.11 0.684,0.821 1.443,1.493 1.685,1.493 C 119.682,72.8 144,49.523 144,48.611 144,46.632 135.256,37.765 128.6,32.995 120.711,27.34 105.552,21.096 104.094,22.9 M 290,23.746 c -10.204,3.523 -18.758,8.612 -26.372,15.691 -3.464,3.221 -7.628,8.307 -7.628,9.317 0,0.819 24.545,24.046 25.412,24.046 0.316,0 1.461,-1.125 2.545,-2.5 3.321,-4.214 7.83,-7.712 12.941,-10.041 1.638,-0.746 3.087,-1.642 3.22,-1.991 0.337,-0.878 -3.684,-34.745 -4.199,-35.366 -0.627,-0.756 -1.748,-0.596 -5.919,0.844 M 23.924,61.9 c -1.963,2.288 -5.032,13.27 -5.953,21.3 -1.044,9.104 0.627,24.821 2.759,25.963 0.927,0.496 33.224,-4.616 34.037,-5.387 0.488,-0.463 0.462,-1.025 -0.186,-4.057 C 53.562,94.945 53.64,88.142 54.763,83.862 55.871,79.64 56.807,80.507 40.055,70.244 24.233,60.552 24.819,60.856 23.924,61.9 M 360,70.206 c -16.94,10.417 -15.832,9.394 -14.729,13.597 1.136,4.324 1.195,11.885 0.128,16.307 -1.029,4.265 -2.175,3.8 16.801,6.82 19.616,3.122 17.721,3.442 19.046,-3.208 2.59,-13.005 -0.26,-36.038 -5.175,-41.822 -0.902,-1.061 -0.503,-1.267 -16.071,8.306 m -195,49.646 c -17.535,16.481 -16.494,15.22 -14.991,18.166 0.718,1.407 1.381,1.873 5.9,4.14 8.841,4.437 14.79,8.294 21.352,13.846 3.893,3.293 3.327,3.201 7.338,1.197 3.269,-1.633 7.067,-2.801 9.111,-2.801 1.383,0 2.69,-0.645 2.69,-1.328 0,-0.439 -18.904,-39.753 -19.989,-41.572 -0.819,-1.373 -1.929,-0.561 -11.411,8.352 m 52.995,3.159 c -8.273,16.949 -8.23,16.848 -7.712,18.129 1.161,2.872 7.369,15.454 7.931,16.076 1.956,2.161 3.138,1.944 6.83,-1.257 5.293,-4.588 14.335,-10.512 20.079,-13.154 4.156,-1.912 7.022,-5.944 5.62,-7.907 -1.266,-1.773 -25.407,-24.085 -26.066,-24.091 -0.553,-0.005 -2.122,2.859 -6.682,12.204 m -97.835,28.355 c -1.974,0.867 -1.954,0.559 -2.083,31.634 -0.166,39.941 -0.946,37.223 9.993,34.809 15.351,-3.386 29.027,-10.193 38.693,-19.256 l 3.037,-2.848 -0.028,-10.85 -0.027,-10.85 -0.973,-1.044 c -3.83,-4.113 -13.147,-10.532 -20.487,-14.114 -10.165,-4.961 -24.925,-8.887 -28.125,-7.481 m 158.44,-0.304 c -9.1,1.282 -21.949,5.805 -30,10.561 -8.375,4.946 -17.055,12.268 -16.412,13.844 0.498,1.222 0.722,13.341 0.302,16.333 -0.465,3.306 -0.39,3.49 2.55,6.281 13.769,13.071 45.283,25.242 48.616,18.775 0.589,-1.144 1.07,-55.987 0.536,-61.173 -0.394,-3.825 -1.974,-5.131 -5.592,-4.621 m -83.2,20.888 c -5.803,1.084 -7.617,4.658 -7.323,14.422 0.279,9.294 2.257,11.272 11.551,11.551 12.101,0.365 14.572,-1.86 14.572,-13.123 0,-8.022 -1.038,-10.465 -5.2,-12.24 -1.771,-0.754 -10.686,-1.155 -13.6,-0.61 M 179,213.439 c -4.645,4.091 -12.227,9.357 -18.282,12.7 -3.402,1.877 -2.779,0.106 -5.757,16.37 -2.132,11.642 -5.495,29.406 -8.347,44.091 -0.731,3.762 -0.641,3.811 4.497,2.434 11.184,-2.995 12.818,-2.504 18.498,5.555 1.802,2.557 3.481,4.581 3.73,4.498 0.252,-0.084 1.821,-7.142 3.539,-15.919 1.697,-8.672 4.366,-22.297 5.931,-30.276 1.564,-7.98 3.819,-19.486 5.01,-25.569 2.394,-12.234 2.417,-11.711 -0.55,-12.706 -1.028,-0.344 -2.652,-1.074 -3.61,-1.622 -2.259,-1.291 -2.741,-1.245 -4.659,0.444 m 40,-0.637 c -0.66,0.438 -2.415,1.262 -3.9,1.832 -3.297,1.265 -3.432,-1.425 1.082,21.533 2.079,10.578 5.312,27.063 7.184,36.633 5.654,28.916 5.103,26.4 5.79,26.4 0.171,0 1.447,-1.665 2.837,-3.7 5.859,-8.576 8.538,-9.574 18.176,-6.771 5.147,1.497 5.831,1.554 5.831,0.488 0,-0.431 -1.25,-7.316 -2.779,-15.3 -1.528,-7.985 -4.049,-21.39 -5.602,-29.789 -1.553,-8.4 -2.924,-15.535 -3.047,-15.856 -0.123,-0.321 -2.327,-1.778 -4.898,-3.238 -5.295,-3.008 -10.445,-6.599 -14.947,-10.424 -3.332,-2.83 -3.912,-3.013 -5.727,-1.808 m -74.6,97.039 c -9.711,2.759 -12.011,3.014 -14.761,1.64 -2.44,-1.22 -2.621,-1.076 -5.064,4.019 -1.745,3.639 -2.177,4.898 -1.915,5.577 0.328,0.847 24.078,23.435 25.385,24.143 1.147,0.621 1.747,-0.382 8.154,-13.62 7.426,-15.343 7.191,-13.877 3.16,-19.652 -3.925,-5.622 -3.029,-5.496 -14.959,-2.107 m 101.437,-1.882 c -1.773,1.959 -7.437,10.693 -7.437,11.468 0,0.94 11.176,24.286 12.197,25.478 0.893,1.042 0.729,1.175 14.608,-11.867 14.406,-13.537 13.635,-12.335 11.219,-17.49 -2.04,-4.354 -2.236,-4.52 -4.418,-3.75 -2.761,0.974 -4.506,0.732 -14.406,-2.002 -10.375,-2.865 -10.776,-2.928 -11.763,-1.837"
       stroke="none"
       fill="#ffffff"
       fill-rule="evenodd" />
    <path
       id="path1"
       d="m 79.4,20.675 c -16.354,2.12 -33.866,11.215 -43.366,22.523 -2.348,2.794 -3.122,2.075 12.798,11.897 17.131,10.57 16.603,10.294 18.002,9.395 4.589,-2.95 7.608,-4.512 10.949,-5.663 2.862,-0.987 3.961,-1.559 4.194,-2.182 0.774,-2.074 4.342,-35.005 3.875,-35.76 -0.288,-0.467 -3.627,-0.576 -6.452,-0.21 M 314.3,20.62 c -0.599,0.625 3.067,35.232 3.869,36.53 0.132,0.213 1.453,0.786 2.935,1.273 3.889,1.277 7.108,2.818 10.238,4.901 3.406,2.266 1.634,2.965 18.196,-7.177 14.858,-9.099 16.062,-9.908 16.062,-10.804 0,-3.131 -16.448,-15.405 -26.2,-19.551 -8.042,-3.418 -23.69,-6.643 -25.1,-5.172 M 137.4,40.4 c 1.306,1.32 2.465,2.4 2.575,2.4 0.11,0 -0.869,-1.08 -2.175,-2.4 -1.306,-1.32 -2.465,-2.4 -2.575,-2.4 -0.11,0 0.869,1.08 2.175,2.4 m 125.175,-0.3 -1.175,1.3 1.3,-1.175 c 0.715,-0.646 1.3,-1.231 1.3,-1.3 0,-0.309 -0.33,-0.037 -1.425,1.175 m -120,10.8 -1.175,1.3 1.3,-1.175 c 1.212,-1.095 1.484,-1.425 1.175,-1.425 -0.069,0 -0.654,0.585 -1.3,1.3 M 262,55.4 c 1.195,1.21 2.263,2.2 2.373,2.2 0.11,0 -0.778,-0.99 -1.973,-2.2 -1.195,-1.21 -2.263,-2.2 -2.373,-2.2 -0.11,0 0.778,0.99 1.973,2.2 m -125.214,0.9 -2.186,2.3 2.3,-2.186 c 2.137,-2.032 2.483,-2.414 2.186,-2.414 -0.062,0 -1.097,1.035 -2.3,2.3 M 268.8,61.8 c 1.195,1.21 2.263,2.2 2.373,2.2 0.11,0 -0.778,-0.99 -1.973,-2.2 -1.195,-1.21 -2.263,-2.2 -2.373,-2.2 -0.11,0 0.778,0.99 1.973,2.2 m -138.613,0.7 -2.387,2.5 2.5,-2.387 c 2.322,-2.218 2.683,-2.613 2.387,-2.613 -0.061,0 -1.186,1.125 -2.5,2.5 m 9.824,14.733 c -7.893,7.414 -12.811,12.319 -12.811,12.776 0,0.871 12.184,26.266 13.087,27.278 0.903,1.012 1.008,0.928 13.021,-10.347 13.974,-13.115 14.022,-13.166 13.74,-14.293 -0.295,-1.173 -12.375,-26.036 -13.039,-26.837 -0.816,-0.982 -0.632,-1.132 -13.998,11.423 M 245.893,65.989 c -1.927,2.75 -13.166,26.92 -12.846,27.623 0.451,0.988 25.401,24.388 26.004,24.388 0.93,0 13.749,-25.943 13.749,-27.824 0,-0.668 -2.61,-3.362 -9.9,-10.217 -5.445,-5.121 -11.186,-10.536 -12.757,-12.035 -3.113,-2.967 -3.427,-3.11 -4.25,-1.935 M 113.4,67.6 c 1.083,1.1 2.06,2 2.17,2 0.11,0 -0.687,-0.9 -1.77,-2 -1.083,-1.1 -2.06,-2 -2.17,-2 -0.11,0 0.687,0.9 1.77,2 m 162.2,0.6 c 1.195,1.21 2.263,2.2 2.373,2.2 0.11,0 -0.778,-0.99 -1.973,-2.2 -1.195,-1.21 -2.263,-2.2 -2.373,-2.2 -0.11,0 0.778,0.99 1.973,2.2 m -152.014,0.5 -2.186,2.3 2.3,-2.186 c 2.137,-2.032 2.483,-2.414 2.186,-2.414 -0.062,0 -1.097,1.035 -2.3,2.3 m 162.392,-0.8 -1.378,1.5 1.5,-1.378 c 1.396,-1.284 1.684,-1.622 1.378,-1.622 -0.066,0 -0.741,0.675 -1.5,1.5 m 96.556,22.5 c 0,1.65 0.071,2.325 0.157,1.5 0.087,-0.825 0.087,-2.175 0,-3 -0.086,-0.825 -0.157,-0.15 -0.157,1.5 M 17.32,90.8 c 0,1.21 0.075,1.705 0.167,1.1 0.091,-0.605 0.091,-1.595 0,-2.2 -0.092,-0.605 -0.167,-0.11 -0.167,1.1 m 328.804,1.4 c 0.002,1.32 0.077,1.812 0.166,1.093 0.089,-0.719 0.087,-1.799 -0.004,-2.4 -0.091,-0.601 -0.164,-0.013 -0.162,1.307 m -292.41,0 c 0.003,1.1 0.081,1.503 0.173,0.895 0.092,-0.609 0.09,-1.509 -0.005,-2 -0.095,-0.492 -0.171,0.005 -0.168,1.105 m 1.532,10.42 c -0.025,0.451 -0.225,1.037 -0.445,1.301 -0.219,0.265 -0.111,0.232 0.239,-0.072 0.35,-0.305 0.55,-0.891 0.445,-1.302 -0.173,-0.673 -0.197,-0.666 -0.239,0.073 m 171.937,9.88 c 1.658,1.766 2.017,2.084 2.017,1.783 0,-0.064 -0.855,-0.919 -1.9,-1.9 l -1.9,-1.783 1.783,1.9 m -55.398,0.8 -1.985,2.1 2.1,-1.985 c 1.155,-1.092 2.1,-2.037 2.1,-2.1 0,-0.298 -0.371,0.034 -2.215,1.985 m 5.443,-0.3 c 0,0.22 0.258,0.85 0.572,1.4 0.314,0.55 0.572,0.82 0.572,0.6 0,-0.22 -0.258,-0.85 -0.572,-1.4 -0.314,-0.55 -0.572,-0.82 -0.572,-0.6 m 56.172,5.4 c 1.306,1.32 2.465,2.4 2.575,2.4 0.11,0 -0.869,-1.08 -2.175,-2.4 -1.306,-1.32 -2.465,-2.4 -2.575,-2.4 -0.11,0 0.869,1.08 2.175,2.4 m -67.814,0.7 -2.186,2.3 2.3,-2.186 c 2.137,-2.032 2.483,-2.414 2.186,-2.414 -0.062,0 -1.097,1.035 -2.3,2.3 M 44.6,123.475 c -9.605,1.564 -16.226,2.821 -16.566,3.145 -1.334,1.273 7.718,17.859 11.082,20.306 15.858,11.536 34.863,-4.931 25.997,-22.526 -2.153,-4.272 -0.432,-4.195 -20.513,-0.925 M 336.229,121.7 c -11.716,17.892 8.123,37.947 24.901,25.172 3.193,-2.432 12.078,-19.063 10.826,-20.266 -0.475,-0.456 -32.289,-5.823 -34.447,-5.81 -0.38,0.002 -0.956,0.409 -1.28,0.904 m -96.029,3.1 c 1.306,1.32 2.465,2.4 2.575,2.4 0.11,0 -0.869,-1.08 -2.175,-2.4 -1.306,-1.32 -2.465,-2.4 -2.575,-2.4 -0.11,0 0.869,1.08 2.175,2.4 m -81.213,0.5 -2.387,2.5 2.5,-2.387 c 2.322,-2.218 2.683,-2.613 2.387,-2.613 -0.061,0 -1.186,1.125 -2.5,2.5 m 58.278,-1.483 c -0.67,1.471 -0.542,1.785 0.182,0.448 0.339,-0.625 0.541,-1.211 0.449,-1.302 -0.091,-0.092 -0.375,0.293 -0.631,0.854 m -33.637,2.383 c 0,0.22 0.258,0.85 0.572,1.4 0.314,0.55 0.572,0.82 0.572,0.6 0,-0.22 -0.258,-0.85 -0.572,-1.4 -0.314,-0.55 -0.572,-0.82 -0.572,-0.6 M 246.8,131 c 1.195,1.21 2.263,2.2 2.373,2.2 0.11,0 -0.778,-0.99 -1.973,-2.2 -1.195,-1.21 -2.263,-2.2 -2.373,-2.2 -0.11,0 0.778,0.99 1.973,2.2 m -94.414,0.5 -2.186,2.3 2.3,-2.186 c 2.137,-2.032 2.483,-2.414 2.186,-2.414 -0.062,0 -1.097,1.035 -2.3,2.3 m -33.368,19.8 c -1.769,1.552 -1.855,3.3 -1.733,35.169 0.145,37.518 -1.005,34.561 12.315,31.678 13.925,-3.015 28.088,-10.2 37.961,-19.261 l 2.962,-2.717 0.038,-11.133 0.039,-11.132 -2.6,-2.523 C 155.253,159.011 124.569,146.432 119.018,151.3 m 153.182,0.304 c -13.7,3.269 -25.262,8.953 -35.315,17.361 -5.599,4.682 -5.048,2.95 -5.068,15.923 l -0.017,11.242 3,2.744 c 9.858,9.018 23.808,16.145 37.8,19.313 8.45,1.914 10.707,1.584 11.885,-1.735 0.764,-2.154 0.75,-61.19 -0.016,-63.351 -1.091,-3.083 -4.091,-3.449 -12.269,-1.497 m -142.661,0.661 c 14.118,3.088 31.256,12.129 39.233,20.696 l 0.973,1.044 0.027,10.85 0.028,10.85 -3.037,2.848 c -9.666,9.063 -23.342,15.87 -38.693,19.256 -7.586,1.674 -9.358,1.114 -9.865,-3.119 -0.386,-3.219 -0.054,-61.188 0.355,-62.034 0.975,-2.018 3.185,-2.096 10.979,-0.391 m 153.527,-0.082 c 1.324,1.502 1.396,3.494 1.259,34.817 -0.156,35.972 0.811,33.249 -10.874,30.617 -14.81,-3.337 -28.892,-10.499 -38.411,-19.536 -2.94,-2.791 -3.015,-2.975 -2.55,-6.281 0.42,-2.992 0.196,-15.111 -0.302,-16.333 -0.234,-0.574 0.385,-1.402 2.856,-3.82 9.044,-8.847 23.498,-16.252 37.956,-19.444 7.342,-1.622 8.653,-1.624 10.066,-0.02 M 194.9,171.876 c 0.385,0.1 1.015,0.1 1.4,0 0.385,-0.101 0.07,-0.183 -0.7,-0.183 -0.77,0 -1.085,0.082 -0.7,0.183 m -2.3,0.59 c -1.163,0.641 -3.005,2.408 -3.476,3.334 -0.224,0.44 0.168,0.121 0.871,-0.709 0.703,-0.83 1.937,-1.858 2.742,-2.283 0.805,-0.425 1.283,-0.775 1.063,-0.778 -0.22,-0.003 -0.76,0.193 -1.2,0.436 m 15.8,-0.18 c 0.33,0.122 0.96,0.388 1.4,0.59 0.787,0.362 0.788,0.358 0.024,-0.254 -0.428,-0.342 -1.058,-0.608 -1.4,-0.59 -0.539,0.027 -0.542,0.061 -0.024,0.254 m 4.724,3.914 c 0.202,0.44 0.468,1.07 0.59,1.4 0.193,0.518 0.227,0.515 0.254,-0.024 0.018,-0.342 -0.248,-0.972 -0.59,-1.4 -0.612,-0.764 -0.616,-0.763 -0.254,0.024 m -25.37,8.6 c 0,2.75 0.064,3.875 0.142,2.5 0.078,-1.375 0.078,-3.625 0,-5 -0.078,-1.375 -0.142,-0.25 -0.142,2.5 m 25.502,8.197 c -0.274,0.757 -1.254,2.035 -2.177,2.839 -0.924,0.804 -1.299,1.267 -0.834,1.028 1.102,-0.565 3.21,-2.976 3.556,-4.068 0.458,-1.441 -0.015,-1.267 -0.545,0.201 m -23.565,1.74 c 0.55,0.81 2.317,2.332 2.305,1.986 -0.003,-0.068 -0.665,-0.753 -1.473,-1.523 -0.912,-0.869 -1.227,-1.045 -0.832,-0.463 m 9.025,3.56 c 1.383,0.078 3.543,0.077 4.8,-0.002 1.256,-0.079 0.124,-0.143 -2.516,-0.142 -2.64,0 -3.668,0.065 -2.284,0.144 m -20.254,14.648 c -4.69,4.165 -11.909,9.178 -18.14,12.598 -1.693,0.929 -3.174,1.997 -3.291,2.373 -0.117,0.376 -1.649,8.424 -3.405,17.884 -1.756,9.46 -4.364,23.302 -5.796,30.76 -1.432,7.458 -2.509,13.713 -2.393,13.9 0.362,0.586 1.802,0.372 7.163,-1.064 9.624,-2.578 11.442,-1.856 17.312,6.872 1.312,1.952 2.692,3.804 3.067,4.115 1.188,0.986 0.353,4.624 8.581,-37.383 10.58,-54.013 9.733,-47.701 6.544,-48.774 -1.047,-0.352 -2.878,-1.177 -4.068,-1.833 -2.826,-1.558 -3.245,-1.517 -5.574,0.552 m 40.138,-0.729 c -0.88,0.546 -2.548,1.294 -3.706,1.663 -4.067,1.296 -4.791,-4.946 5.507,47.521 1.08,5.5 3.23,16.47 4.778,24.377 3.367,17.194 3.068,16.599 6.083,12.098 7.03,-10.493 8.504,-11.167 18.538,-8.479 6.366,1.706 7,1.743 7,0.415 0,-0.545 -1.52,-8.96 -3.377,-18.7 -1.857,-9.741 -4.394,-23.291 -5.637,-30.111 -2.578,-14.143 -2.34,-13.553 -6.387,-15.775 -5.89,-3.232 -11.809,-7.349 -17.199,-11.964 -2.714,-2.323 -3.347,-2.441 -5.6,-1.045 m -34.941,0.779 c 0.958,0.548 2.582,1.278 3.61,1.622 2.967,0.995 2.944,0.472 0.55,12.706 -1.191,6.083 -3.446,17.589 -5.01,25.569 -1.565,7.979 -4.234,21.604 -5.931,30.276 -1.718,8.777 -3.287,15.835 -3.539,15.919 -0.249,0.083 -1.928,-1.941 -3.73,-4.498 -5.68,-8.059 -7.314,-8.55 -18.498,-5.555 -5.138,1.377 -5.228,1.328 -4.497,-2.434 2.852,-14.685 6.215,-32.449 8.347,-44.091 2.978,-16.264 2.355,-14.493 5.757,-16.37 6.055,-3.343 13.637,-8.609 18.282,-12.7 1.918,-1.689 2.4,-1.735 4.659,-0.444 m 41.068,1.615 c 4.502,3.825 9.652,7.416 14.947,10.424 2.571,1.46 4.775,2.917 4.898,3.238 0.123,0.321 1.494,7.456 3.047,15.856 1.553,8.399 4.074,21.804 5.602,29.789 1.529,7.984 2.779,14.869 2.779,15.3 0,1.066 -0.684,1.009 -5.831,-0.488 -9.638,-2.803 -12.317,-1.805 -18.176,6.771 -1.39,2.035 -2.666,3.7 -2.837,3.7 -0.687,0 -0.136,2.516 -5.79,-26.4 -1.872,-9.57 -5.105,-26.055 -7.184,-36.633 -4.514,-22.958 -4.379,-20.268 -1.082,-21.533 1.485,-0.57 3.24,-1.394 3.9,-1.832 1.815,-1.205 2.395,-1.022 5.727,1.808 M 127,326 c 1.306,1.32 2.465,2.4 2.575,2.4 0.11,0 -0.869,-1.08 -2.175,-2.4 -1.306,-1.32 -2.465,-2.4 -2.575,-2.4 -0.11,0 0.869,1.08 2.175,2.4 m 145.187,0.5 -2.387,2.5 2.5,-2.387 c 1.375,-1.314 2.5,-2.439 2.5,-2.5 0,-0.296 -0.395,0.065 -2.613,2.387 M 133.8,332.4 c 1.306,1.32 2.465,2.4 2.575,2.4 0.11,0 -0.869,-1.08 -2.175,-2.4 -1.306,-1.32 -2.465,-2.4 -2.575,-2.4 -0.11,0 0.869,1.08 2.175,2.4 m 131.587,0.5 -2.387,2.5 2.5,-2.387 c 1.375,-1.314 2.5,-2.439 2.5,-2.5 0,-0.296 -0.395,0.065 -2.613,2.387 M 140.4,338.6 c 1.195,1.21 2.263,2.2 2.373,2.2 0.11,0 -0.778,-0.99 -1.973,-2.2 -1.195,-1.21 -2.263,-2.2 -2.373,-2.2 -0.11,0 0.778,0.99 1.973,2.2 m 118.386,0.5 -2.186,2.3 2.3,-2.186 c 2.137,-2.032 2.483,-2.414 2.186,-2.414 -0.062,0 -1.097,1.035 -2.3,2.3 m 24.484,1.017 c -19.899,18.558 -23.67,22.24 -23.67,23.113 0,1.667 4.922,10.544 6.997,12.619 13.271,13.271 35.174,-0.762 28.854,-18.487 -0.746,-2.092 -8.224,-18.228 -8.741,-18.862 -0.654,-0.802 -1.041,-0.62 -3.44,1.617 M 109.558,346.7 c -6.219,12.829 -6.868,15.01 -5.952,20.012 2.608,14.243 20.308,19.61 29.936,9.076 2.833,-3.101 7.195,-11.712 6.647,-13.123 -0.518,-1.332 -24.99,-24.257 -25.899,-24.261 -0.528,-0.003 -1.736,2.113 -4.732,8.296 m 36.929,-2.495 c 0.817,0.855 1.551,1.474 1.63,1.375 0.08,-0.099 -0.589,-0.799 -1.486,-1.555 L 145,342.65 l 1.487,1.555 m 106.407,0.207 c -0.719,0.653 -1.157,1.188 -0.975,1.188 0.182,0 0.849,-0.54 1.481,-1.2 1.47,-1.535 1.186,-1.528 -0.506,0.012"
       stroke="none"
       fill="#da1b43"
       fill-rule="evenodd" />
    <path
       id="path2"
       d="M 79.4,0.47 C 41.717,4.675 11.337,29.994 1.032,65.783 L 0,69.365 v 21.272 21.271 l 1.642,5.346 c 0.903,2.94 1.772,5.526 1.933,5.746 0.16,0.22 0.533,1.03 0.829,1.8 1.005,2.617 2.75,6.39 8.784,19 6.061,12.665 11.926,19.222 20.876,23.337 27.183,12.5 57.558,-10.284 52.977,-39.737 -0.854,-5.489 -1.912,-8.141 -9.02,-22.6 -3.811,-7.753 -4.197,-8.941 -4.173,-12.84 0.083,-13.543 16.91,-19.933 25.966,-9.86 1.867,2.077 2.076,2.479 13.512,26.082 2.021,4.17 5.22,10.74 7.109,14.6 l 3.435,7.018 -3.185,0.278 c -11.875,1.034 -19.811,7.488 -22.532,18.322 -1.16,4.619 -1.162,68.673 -0.003,73 3.782,14.108 16.05,20.703 32.15,17.282 3.048,-0.648 4.5,-0.81 4.5,-0.504 0,0.899 -3.159,16.462 -3.538,17.43 -0.214,0.546 -2.315,4.952 -4.67,9.792 -2.354,4.84 -5.23,10.78 -6.391,13.2 -1.161,2.42 -4.201,8.695 -6.756,13.944 -2.555,5.248 -4.645,9.601 -4.645,9.671 0,0.07 -2.089,4.416 -4.642,9.657 -2.553,5.24 -5.414,11.148 -6.358,13.128 -0.944,1.98 -3.73,7.74 -6.191,12.8 -7.078,14.555 -8.145,18.033 -8.078,26.327 0.126,15.521 9.288,28.74 23.955,34.563 l 3.418,1.357 10.648,-0.124 10.648,-0.123 3.717,-1.685 c 4.399,-1.994 9.417,-5.514 12.504,-8.772 3.943,-4.159 5.276,-6.697 25.097,-47.788 l 2.82,-5.846 2.989,-0.192 c 7.238,-0.464 9.207,-3.3 11.887,-17.117 5.127,-26.436 9.91,-49.729 10.104,-49.2 0.121,0.33 1.503,7.17 3.071,15.2 1.569,8.03 3.013,15.32 3.209,16.2 0.196,0.88 0.907,4.48 1.58,8 3.907,20.442 3.999,20.779 6.392,23.504 1.48,1.686 5.011,3.496 6.82,3.496 1.207,0 1.324,0.173 4.38,6.5 1.727,3.575 4.759,9.83 6.737,13.9 1.977,4.07 5.43,11.18 7.671,15.8 8,16.488 12.662,21.831 23.062,26.427 l 3.56,1.573 10.639,0.118 10.639,0.118 3.29,-1.201 c 19.282,-7.037 29.134,-29.062 21.755,-48.635 -0.58,-1.54 -1.926,-4.638 -2.989,-6.885 -1.064,-2.247 -1.934,-4.163 -1.934,-4.259 0,-0.096 -0.792,-1.858 -1.761,-3.915 -0.968,-2.058 -3.202,-6.891 -4.963,-10.741 -1.761,-3.85 -4.119,-8.949 -5.239,-11.331 -1.12,-2.382 -2.037,-4.385 -2.037,-4.452 0,-0.067 -1.08,-2.4 -2.4,-5.184 -1.32,-2.785 -2.4,-5.13 -2.4,-5.211 0,-0.081 -0.785,-1.83 -1.745,-3.885 -0.96,-2.055 -3.195,-6.887 -4.966,-10.737 -1.771,-3.85 -4.135,-8.949 -5.254,-11.331 -1.119,-2.382 -2.035,-4.414 -2.035,-4.516 0,-0.102 -1.2,-2.653 -2.667,-5.669 -2.304,-4.738 -7.188,-23.365 -6.383,-24.345 0.028,-0.033 2.12,0.37 4.65,0.896 16.361,3.404 28.195,-2.946 32.121,-17.235 1.367,-4.978 1.38,-68.238 0.015,-73.039 -3.319,-11.671 -11.387,-17.957 -23.235,-18.105 -2.474,-0.031 -4.499,-0.086 -4.5,-0.123 -0.004,-0.258 2.146,-4.834 5.956,-12.676 2.444,-5.029 4.443,-9.195 4.443,-9.258 0,-0.116 7.123,-14.89 10.036,-20.816 6.419,-13.058 22.12,-13.83 28.108,-1.383 2.659,5.526 1.951,8.85 -4.858,22.8 -7.881,16.146 -9.127,22.584 -6.465,33.394 7.866,31.942 50.586,38.898 68.107,11.091 2.413,-3.829 13.865,-27.274 13.874,-28.405 0.002,-0.154 0.27,-0.792 0.596,-1.418 0.327,-0.625 1.316,-3.481 2.198,-6.346 L 400,111.908 V 90.624 69.34 l -1.246,-4.17 C 384.355,16.977 334.585,-10.221 286.6,3.88 c -25.849,7.597 -46.741,26.127 -57.978,51.423 -0.512,1.153 -3.832,8.016 -7.377,15.251 -3.545,7.234 -6.445,13.198 -6.445,13.251 0,0.054 -2.54,5.295 -5.645,11.646 -3.104,6.352 -6.34,13.034 -7.189,14.849 -0.849,1.815 -1.697,3.3 -1.885,3.3 -0.316,0 -4.937,-9.236 -13.608,-27.2 -1.964,-4.07 -5.506,-11.36 -7.871,-16.2 -2.365,-4.84 -5.443,-11.195 -6.84,-14.121 C 163.836,39.479 156.074,29.272 144,19.573 126.706,5.68 100.955,-1.935 79.4,0.47 m 6.452,20.415 c 0.467,0.755 -3.101,33.686 -3.875,35.76 -0.233,0.623 -1.332,1.195 -4.194,2.182 -3.341,1.151 -6.36,2.713 -10.949,5.663 -1.399,0.899 -0.871,1.175 -18.002,-9.395 C 32.912,45.273 33.686,45.992 36.034,43.198 43.112,34.773 56.37,26.484 68.216,23.078 76.047,20.826 85.119,19.698 85.852,20.885 M 324.8,21.406 c 13.871,2.565 26.326,9.073 36.469,19.057 4.757,4.683 4.928,5.05 3.031,6.468 -1.937,1.449 -28.065,17.4 -29.22,17.839 -0.846,0.321 -1.41,0.103 -3.738,-1.446 -3.13,-2.083 -6.349,-3.624 -10.238,-4.901 -1.482,-0.487 -2.803,-1.06 -2.935,-1.273 -0.802,-1.298 -4.468,-35.905 -3.869,-36.53 0.409,-0.426 6.346,0.019 10.5,0.786 m -214.2,2.253 c 12.204,3.934 27.344,14.748 33.233,23.735 1.025,1.564 0.946,1.655 -12.2,13.99 -13.115,12.306 -13.277,12.416 -14.89,10.116 -3.042,-4.336 -8.701,-8.867 -13.997,-11.206 -2.058,-0.909 -2.824,-1.464 -3.002,-2.176 -0.35,-1.395 3.677,-34.821 4.283,-35.551 0.591,-0.711 1.391,-0.578 6.573,1.092 M 296.247,23.23 c 0.612,1.328 4.336,33.588 4.021,34.84 -0.193,0.77 -0.897,1.289 -3.026,2.229 -5.111,2.258 -10.48,6.467 -13.504,10.585 -2.177,2.966 -1.789,3.206 -15.351,-9.516 -13.596,-12.754 -13.27,-12.366 -11.942,-14.232 7.281,-10.224 21.777,-20.158 35.155,-24.092 3.88,-1.14 4.039,-1.134 4.647,0.186 M 40.6,70.325 c 16.492,10.136 15.577,9.279 14.353,13.435 -1.033,3.509 -1.034,12.544 -0.002,16.574 1.041,4.061 1.707,3.744 -12.774,6.084 -24.382,3.94 -22.049,3.921 -22.959,0.182 C 15.89,92.92 17.323,76.138 22.923,63.2 24.224,60.196 23.924,60.076 40.6,70.325 M 377.074,63.2 c 5.176,10.655 6.917,28.096 4.146,41.528 -1.209,5.86 1.039,5.6 -19.657,2.277 -16.552,-2.658 -17.584,-2.931 -16.984,-4.496 1.57,-4.091 1.787,-13.808 0.424,-19.027 -1.002,-3.839 -1.551,-3.34 14.597,-13.279 16.215,-9.98 16.059,-9.918 17.474,-7.003 m -223.065,2.61 c 0.664,0.801 12.744,25.664 13.039,26.837 0.282,1.127 0.234,1.178 -13.74,14.293 -12.013,11.275 -12.118,11.359 -13.021,10.347 C 139.384,116.275 127.2,90.88 127.2,90.009 c 0,-0.715 25.212,-24.809 25.962,-24.809 0.187,0 0.568,0.275 0.847,0.61 m 96.134,2.114 c 1.571,1.499 7.312,6.914 12.757,12.035 7.29,6.855 9.9,9.549 9.9,10.217 0,1.881 -12.819,27.824 -13.749,27.824 -0.603,0 -25.553,-23.4 -26.004,-24.388 -0.32,-0.703 10.919,-24.873 12.846,-27.623 0.823,-1.175 1.137,-1.032 4.25,1.935 M 176.297,110.9 c 1.57,1.987 20.549,42.362 20.143,42.852 -0.253,0.304 -1.788,0.751 -3.412,0.993 -3.627,0.539 -6.184,1.368 -8.922,2.89 -2.911,1.62 -3.492,1.511 -6.706,-1.255 -6.169,-5.307 -14.054,-10.4 -22.366,-14.446 -4.237,-2.062 -4.393,-2.186 -5.306,-4.18 -1.28,-2.794 -1.95,-1.959 12.329,-15.37 12.507,-11.747 13.438,-12.499 14.24,-11.484 m 51.846,2.223 c 1.571,1.498 7.402,7.004 12.957,12.237 11.241,10.589 10.92,10.101 8.991,13.64 -1.011,1.853 -1.431,2.177 -5.714,4.4 -7.773,4.035 -12.438,7.117 -18.891,12.48 -5.726,4.759 -6.419,4.353 -11.717,-6.855 -2.073,-4.386 -3.769,-8.44 -3.769,-9.008 0,-1.14 13.314,-28.788 14.105,-29.291 0.856,-0.543 1.113,-0.39 4.038,2.397 M 65.113,124.4 c 8.866,17.595 -10.139,34.062 -25.997,22.526 -3.364,-2.447 -12.416,-19.033 -11.082,-20.306 0.628,-0.599 31.655,-5.793 33.966,-5.685 1.338,0.062 1.475,0.215 3.113,3.465 M 354.8,123.432 c 9.969,1.586 16.822,2.854 17.156,3.174 1.252,1.203 -7.633,17.834 -10.826,20.266 -16.778,12.775 -36.617,-7.28 -24.901,-25.172 0.771,-1.178 -0.424,-1.289 18.571,1.732 m -224.943,28.141 c 14.445,3.294 28.816,10.757 38.143,19.808 l 2.6,2.523 -0.039,11.132 -0.038,11.133 -2.962,2.717 c -11.253,10.327 -27.137,17.719 -44.055,20.502 -2.315,0.381 -4.392,-0.353 -5.314,-1.879 -0.922,-1.523 -1.471,-58.284 -0.611,-63.04 0.805,-4.444 3.107,-4.987 12.276,-2.896 m 153.223,-0.572 c 1.903,1.333 1.92,1.631 1.92,33.799 0,36.143 0.219,34.674 -5.142,34.537 -12.457,-0.319 -33.467,-9.86 -45.058,-20.463 l -3,-2.744 0.017,-11.242 c 0.02,-12.973 -0.531,-11.241 5.068,-15.923 13.521,-11.308 40.641,-21.854 46.195,-17.964 m -72.753,21.902 c 4.881,3.233 6.059,17.611 1.826,22.296 -3.804,4.211 -17.645,4.447 -21.722,0.37 -3.725,-3.725 -3.908,-16.947 -0.292,-21.066 2.868,-3.267 16.089,-4.314 20.188,-1.6 m -26.291,39.49 c 1.19,0.656 3.021,1.481 4.068,1.833 2.904,0.977 2.909,0.486 -0.161,16.174 -13.338,68.161 -13.591,69.43 -13.956,70.021 -0.49,0.794 -1.314,-0.045 -4.075,-4.153 -5.87,-8.728 -7.688,-9.45 -17.312,-6.872 -5.361,1.436 -6.801,1.65 -7.163,1.064 -0.116,-0.187 0.961,-6.442 2.393,-13.9 1.432,-7.458 4.04,-21.3 5.796,-30.76 1.756,-9.46 3.288,-17.508 3.405,-17.884 0.117,-0.376 1.598,-1.444 3.291,-2.373 6.231,-3.42 13.45,-8.433 18.14,-12.598 2.329,-2.069 2.748,-2.11 5.574,-0.552 m 40.164,0.868 c 5.39,4.615 11.309,8.732 17.199,11.964 4.047,2.222 3.809,1.632 6.387,15.775 1.243,6.82 3.78,20.37 5.637,30.111 1.857,9.74 3.377,18.155 3.377,18.7 0,1.328 -0.634,1.291 -7,-0.415 -10.034,-2.688 -11.508,-2.014 -18.538,8.479 -3.015,4.501 -2.716,5.096 -6.083,-12.098 -1.548,-7.907 -3.698,-18.877 -4.778,-24.377 -10.298,-52.467 -9.574,-46.225 -5.507,-47.521 1.158,-0.369 2.826,-1.117 3.706,-1.663 2.253,-1.396 2.886,-1.278 5.6,1.045 M 156.113,307.3 c 1.169,0.877 6.687,9.237 6.687,10.13 0,1.935 -13.024,27.963 -14.045,28.068 -1.329,0.138 -26.093,-23.186 -26.276,-24.747 -0.138,-1.177 3.406,-9.042 4.467,-9.912 0.596,-0.489 0.945,-0.439 2.708,0.386 2.982,1.397 4.925,1.175 15.346,-1.752 10.269,-2.884 10.187,-2.868 11.113,-2.173 m 100.889,2.133 c 10.191,2.795 12.209,3.095 14.868,2.213 2.358,-0.783 2.723,-0.507 4.553,3.44 2.334,5.037 2.354,5.307 0.516,7.108 -9.031,8.851 -24.776,23.229 -25.548,23.33 -0.834,0.11 -1.157,-0.314 -2.736,-3.6 -0.984,-2.048 -3.785,-7.855 -6.223,-12.905 -2.437,-5.049 -4.432,-9.407 -4.432,-9.685 0,-1.31 8.17,-12.534 9.124,-12.534 0.154,0 4.599,1.185 9.878,2.633 M 286.71,338.5 c 0.517,0.634 7.995,16.77 8.741,18.862 6.32,17.725 -15.583,31.758 -28.854,18.487 -2.075,-2.075 -6.997,-10.952 -6.997,-12.619 0,-0.873 3.771,-4.555 23.67,-23.113 2.399,-2.237 2.786,-2.419 3.44,-1.617 M 127.4,350.036 c 6.82,6.396 12.575,12.079 12.789,12.629 0.548,1.411 -3.814,10.022 -6.647,13.123 -11.301,12.365 -32.829,2.019 -29.969,-14.403 0.79,-4.537 9.395,-22.988 10.717,-22.981 0.391,0.002 6.29,5.236 13.11,11.632"
       stroke="none"
       fill="#040404"
       fill-rule="evenodd" />
  </g>
  <path
     style="fill:#222b00;fill-opacity:1;stroke:#000000;stroke-width:2.38681e-05;stroke-linecap:round;paint-order:fill markers stroke"
     d=""
     id="path12" />
  <path
     style="fill:#222b00;fill-opacity:1;stroke:#000000;stroke-width:2.38681e-05;stroke-linecap:round;paint-order:fill markers stroke"
     d=""
     id="path13" />
  <path
     style="fill:#222b00;fill-opacity:1;stroke:#000000;stroke-width:2.38681e-05;stroke-linecap:round;paint-order:fill markers stroke"
     d=""
     id="path17" />
  <path
     style="fill:#222b00;fill-opacity:1;stroke:#000000;stroke-width:2.38681e-05;stroke-linecap:round;paint-order:fill markers stroke"
     d=""
     id="path30" />
  <path
     style="fill:#222b00;fill-opacity:1;stroke:#000000;stroke-width:2.38681e-05;stroke-linecap:round;paint-order:fill markers stroke"
     d=""
     id="path32" />
  <path
     style="fill:#222b00;fill-opacity:1;stroke:#000000;stroke-width:2.38681e-05;stroke-linecap:round;paint-order:fill markers stroke"
     d=""
     id="path33" />
  <path
     style="fill:#222b00;fill-opacity:1;stroke:#000000;stroke-width:0.00038189;stroke-linecap:round;paint-order:fill markers stroke"
     d=""
     id="path35" />
  <path
     style="fill:#222b00;fill-opacity:1;stroke:#000000;stroke-width:9.54725e-05;stroke-linecap:round;paint-order:fill markers stroke"
     d=""
     id="path51" />
  <path
     style="fill:#222b00;fill-opacity:1;stroke:#000000;stroke-width:9.54725e-05;stroke-linecap:round;paint-order:fill markers stroke"
     d=""
     id="path54" />
  <path
     style="fill:#222b00;fill-opacity:1;stroke:#000000;stroke-width:2.38681e-05;stroke-linecap:round;paint-order:fill markers stroke"
     d=""
     id="path57" />
  <path
     style="fill:#222b00;fill-opacity:1;stroke:#000000;stroke-width:2.38681e-05;stroke-linecap:round;paint-order:fill markers stroke"
     d=""
     id="path63" />
  <path
     style="fill:#222b00;fill-opacity:1;stroke:#000000;stroke-width:2.38681e-05;stroke-linecap:round;paint-order:fill markers stroke"
     d=""
     id="path77" />
  <path
     style="fill:#222b00;fill-opacity:1;stroke:#000000;stroke-width:2.38681e-05;stroke-linecap:round;paint-order:fill markers stroke"
     d=""
     id="path80" />
  <path
     style="fill:#222b00;fill-opacity:1;stroke:#000000;stroke-width:2.38681e-05;stroke-linecap:round;paint-order:fill markers stroke"
     d=""
     id="path86" />
  <path
     style="fill:#222b00;fill-opacity:1;stroke:#000000;stroke-width:0.000540074;stroke-linecap:round;paint-order:fill markers stroke"
     d=""
     id="path96" />
  <path
     style="fill:#222b00;fill-opacity:1;stroke:#000000;stroke-width:4.77362e-05;stroke-linecap:round;paint-order:fill markers stroke"
     d=""
     id="path101" />
  <path
     style="fill:#222b00;fill-opacity:1;stroke:#000000;stroke-width:4.77362e-05;stroke-linecap:round;paint-order:fill markers stroke"
     d=""
     id="path106" />
  <path
     style="fill:#222b00;fill-opacity:1;stroke:#000000;stroke-width:0.000135019;stroke-linecap:round;paint-order:fill markers stroke"
     d=""
     id="path111" />
  <path
     style="fill:#222b00;fill-opacity:1;stroke:#000000;stroke-width:0.000135019;stroke-linecap:round;paint-order:fill markers stroke"
     d=""
     id="path112" />
  <path
     style="fill:#222b00;fill-opacity:1;stroke:#000000;stroke-width:2.38681e-05;stroke-linecap:round;paint-order:fill markers stroke"
     d=""
     id="path114" />
  <path
     style="fill:#222b00;fill-opacity:1;stroke:#000000;stroke-width:2.38681e-05;stroke-linecap:round;paint-order:fill markers stroke"
     d=""
     id="path116" />
  <path
     style="fill:#445500;fill-opacity:1;stroke:#000000;stroke-width:0.0021603;stroke-linecap:round;paint-order:fill markers stroke"
     d=""
     id="path119" />
</svg>
