<?xml version="1.0" standalone="no"?>
<!DOCTYPE svg PUBLIC "-//W3C//DTD SVG 20010904//EN"
 "http://www.w3.org/TR/2001/REC-SVG-20010904/DTD/svg10.dtd">
<svg version="1.0" xmlns="http://www.w3.org/2000/svg"
 width="4096.000000pt" height="4096.000000pt" viewBox="0 0 4096.000000 4096.000000"
 preserveAspectRatio="xMidYMid meet">
<metadata>
Created by potrace 1.16, written by Peter Selinger 2001-2019
</metadata>
<g transform="translate(0.000000,4096.000000) scale(0.100000,-0.100000)"
fill="#000000" stroke="none">
<path d="M20439 36976 c-3 -3 -114 -7 -246 -9 -211 -2 -244 -5 -261 -20 -15
-14 -41 -17 -155 -18 -124 0 -139 -2 -164 -22 -24 -19 -44 -23 -148 -27 -98
-4 -120 -8 -120 -20 0 -22 -23 -28 -82 -22 -70 7 -120 -4 -128 -28 -5 -16 -17
-20 -83 -22 -60 -2 -77 -6 -77 -18 0 -12 -17 -16 -77 -20 -61 -4 -81 -9 -100
-27 -14 -13 -36 -23 -50 -23 -36 0 -58 -10 -58 -25 0 -8 -22 -15 -62 -19 -44
-5 -70 -14 -86 -29 -15 -14 -34 -20 -53 -19 -19 2 -41 -6 -62 -22 -18 -13 -48
-26 -67 -28 -26 -2 -36 -8 -38 -23 -2 -17 -9 -20 -37 -17 -27 3 -40 -2 -61
-23 -15 -15 -38 -27 -55 -27 -15 -1 -26 -5 -23 -9 3 -5 -2 -6 -10 -3 -11 4
-16 0 -16 -10 0 -11 -9 -16 -26 -16 -15 0 -33 -8 -41 -17 -8 -10 -11 -12 -7
-4 5 9 3 12 -4 7 -7 -4 -12 -14 -12 -22 0 -10 -12 -14 -38 -14 -25 0 -46 -7
-61 -21 -12 -12 -38 -25 -57 -30 -19 -6 -34 -16 -34 -24 0 -9 -10 -15 -25 -15
-14 0 -37 -11 -51 -25 -14 -14 -36 -25 -49 -25 -13 0 -30 -8 -37 -19 -7 -10
-27 -21 -45 -25 -19 -4 -35 -15 -38 -27 -4 -12 -15 -19 -31 -19 -14 0 -22 -4
-19 -10 3 -6 -1 -7 -9 -4 -9 4 -18 0 -22 -9 -3 -9 -21 -21 -39 -27 -18 -6 -36
-17 -39 -25 -3 -8 -14 -15 -24 -15 -11 0 -26 -7 -33 -17 -8 -9 -29 -22 -46
-30 -18 -7 -33 -20 -33 -28 0 -9 -9 -15 -24 -15 -24 0 -51 -19 -58 -40 -2 -6
-14 -12 -27 -15 -13 -2 -32 -14 -43 -25 -10 -11 -23 -20 -29 -20 -5 0 -14 -11
-19 -25 -6 -15 -15 -23 -23 -19 -8 3 -28 -6 -45 -20 -16 -15 -34 -26 -40 -26
-5 0 -12 -9 -15 -20 -3 -13 -14 -20 -31 -20 -16 0 -31 -9 -41 -24 -9 -13 -25
-26 -35 -29 -11 -3 -20 -12 -20 -21 0 -9 -8 -16 -19 -16 -27 0 -51 -10 -51
-22 0 -5 5 -6 10 -3 6 3 10 3 10 0 0 -3 -16 -13 -35 -21 -19 -8 -35 -21 -35
-29 0 -8 -9 -15 -20 -15 -11 0 -20 -4 -20 -10 0 -5 -6 -7 -14 -4 -8 3 -17 -3
-20 -14 -4 -11 -16 -22 -27 -25 -12 -3 -18 -10 -15 -16 4 -6 -11 -19 -34 -31
-22 -11 -40 -25 -40 -30 0 -6 -7 -10 -15 -10 -8 0 -22 -11 -31 -25 -9 -14 -23
-25 -30 -25 -8 0 -13 -3 -12 -7 3 -18 -15 -41 -27 -36 -8 2 -25 -6 -37 -19
-13 -14 -31 -27 -40 -31 -10 -3 -18 -13 -18 -21 0 -7 -9 -16 -21 -19 -11 -3
-23 -14 -25 -24 -3 -11 -20 -23 -37 -29 -21 -6 -32 -15 -31 -26 1 -10 -2 -15
-7 -12 -5 3 -20 -6 -33 -20 -13 -14 -28 -26 -33 -26 -5 0 -15 -11 -21 -25 -6
-14 -18 -25 -27 -25 -8 0 -15 -9 -15 -20 0 -12 -7 -20 -17 -20 -24 0 -105 -79
-96 -93 3 -7 3 -9 -2 -5 -12 12 -47 -12 -41 -28 4 -9 -1 -14 -15 -14 -13 0
-24 -10 -30 -29 -8 -21 -15 -28 -27 -24 -11 5 -14 2 -9 -11 4 -10 1 -19 -8
-22 -8 -4 -12 -10 -9 -15 3 -5 -2 -6 -10 -3 -9 4 -16 1 -16 -6 0 -7 -12 -23
-26 -36 -14 -14 -22 -29 -18 -36 4 -6 3 -8 -4 -4 -12 7 -42 -20 -42 -39 0 -9
-6 -12 -15 -9 -8 4 -15 1 -15 -4 0 -6 -11 -23 -25 -38 -14 -15 -25 -33 -25
-40 0 -8 -6 -11 -15 -8 -11 4 -19 -3 -26 -25 -6 -17 -16 -29 -22 -28 -7 1 -12
-5 -12 -13 0 -8 -9 -17 -20 -20 -11 -3 -21 -16 -23 -28 -2 -12 -10 -22 -19
-22 -8 0 -17 -9 -20 -20 -3 -10 -14 -22 -24 -25 -10 -4 -19 -15 -19 -26 0 -10
-7 -19 -15 -19 -9 0 -20 -11 -25 -25 -5 -14 -16 -25 -25 -25 -8 0 -15 -7 -15
-15 0 -8 -18 -32 -40 -54 -22 -21 -40 -43 -40 -49 0 -6 -6 -15 -13 -19 -18
-11 -77 -103 -77 -120 0 -7 -5 -13 -10 -13 -6 0 -15 -11 -20 -25 -5 -14 -16
-25 -25 -25 -8 0 -15 -7 -15 -15 0 -8 -8 -22 -18 -32 -27 -27 -72 -101 -72
-118 0 -8 -7 -15 -15 -15 -8 0 -15 -4 -15 -9 0 -6 -11 -22 -25 -37 -14 -15
-25 -31 -25 -36 0 -5 -9 -18 -20 -30 -11 -12 -20 -32 -20 -44 0 -14 -8 -25
-20 -29 -11 -3 -20 -13 -20 -22 0 -8 -9 -26 -20 -40 -11 -14 -20 -35 -20 -45
0 -11 -9 -22 -20 -25 -11 -3 -20 -14 -20 -23 0 -10 -9 -22 -20 -25 -11 -3 -20
-15 -20 -25 0 -11 -7 -23 -15 -27 -8 -5 -16 -17 -18 -28 -1 -11 -6 -26 -10
-32 -5 -7 -5 -18 -1 -25 4 -6 3 -8 -2 -5 -16 10 -34 -8 -36 -35 -1 -15 -6 -24
-10 -22 -9 6 -38 -48 -38 -70 0 -10 -6 -13 -15 -10 -9 4 -15 0 -15 -8 0 -8
-11 -29 -25 -48 -14 -19 -25 -44 -25 -56 0 -12 -7 -24 -15 -28 -8 -3 -15 -12
-15 -19 0 -8 -7 -20 -15 -27 -9 -7 -14 -19 -11 -27 3 -8 -1 -16 -9 -19 -8 -4
-15 -13 -15 -20 0 -8 -7 -17 -15 -20 -8 -3 -17 -15 -21 -26 -3 -11 -15 -29
-26 -40 -12 -12 -18 -28 -15 -39 3 -12 -2 -23 -13 -29 -10 -6 -22 -19 -25 -31
-4 -12 -16 -30 -26 -40 -10 -10 -19 -30 -19 -44 0 -15 -6 -25 -14 -25 -8 0
-18 -10 -22 -22 -4 -13 -15 -34 -25 -47 -11 -13 -19 -32 -19 -42 0 -10 -7 -22
-17 -27 -14 -8 -19 -23 -22 -69 -1 -6 -10 -15 -21 -18 -11 -3 -20 -14 -20 -24
0 -10 -9 -26 -20 -36 -12 -11 -20 -31 -20 -51 0 -25 -4 -32 -15 -28 -8 3 -17
0 -19 -7 -2 -8 -9 -33 -15 -57 -7 -23 -16 -40 -21 -37 -6 4 -10 0 -10 -8 0 -8
-9 -22 -20 -32 -11 -10 -22 -33 -26 -51 -3 -19 -10 -34 -15 -34 -5 0 -15 -12
-22 -27 -6 -16 -18 -34 -25 -42 -7 -7 -16 -26 -19 -42 -3 -16 -10 -29 -14 -29
-5 0 -15 -12 -22 -27 -6 -16 -17 -34 -24 -41 -7 -8 -11 -18 -8 -23 4 -5 1 -9
-4 -9 -6 0 -11 -9 -11 -19 0 -10 -7 -22 -16 -25 -9 -4 -14 -13 -10 -22 3 -8 2
-12 -4 -9 -6 4 -10 -6 -10 -23 0 -21 -6 -31 -20 -35 -11 -3 -20 -13 -20 -22 0
-10 -7 -23 -15 -29 -9 -6 -17 -24 -19 -39 -1 -15 -13 -35 -24 -43 -12 -8 -22
-22 -22 -30 0 -8 -9 -23 -20 -34 -11 -11 -20 -31 -20 -44 0 -13 -7 -26 -15
-29 -8 -4 -21 -22 -29 -40 -8 -19 -19 -38 -25 -41 -6 -4 -11 -18 -11 -31 0
-12 -7 -26 -16 -29 -9 -4 -14 -13 -10 -22 3 -8 2 -13 -3 -10 -5 3 -12 -10 -15
-29 -5 -26 -10 -33 -23 -28 -12 5 -15 2 -10 -10 3 -9 2 -19 -4 -22 -5 -4 -7
-11 -3 -16 3 -5 2 -9 -3 -8 -24 4 -32 -5 -38 -40 -4 -22 -13 -42 -22 -45 -8
-3 -13 -11 -11 -17 2 -7 -9 -24 -24 -40 -15 -15 -28 -37 -28 -49 0 -11 -7 -23
-15 -26 -8 -3 -17 -16 -21 -27 -4 -12 -15 -33 -25 -46 -11 -13 -19 -32 -19
-42 0 -10 -7 -22 -16 -27 -9 -5 -17 -24 -19 -42 -2 -24 -9 -36 -25 -42 -16 -6
-21 -14 -17 -28 3 -13 0 -20 -9 -20 -17 0 -34 -31 -34 -63 0 -16 -7 -26 -20
-30 -11 -3 -20 -13 -20 -22 0 -9 -9 -28 -20 -42 -11 -14 -20 -38 -20 -53 0
-20 -5 -27 -17 -26 -10 0 -19 -8 -21 -19 -2 -11 -13 -28 -23 -38 -10 -10 -19
-29 -19 -42 0 -14 -8 -29 -20 -35 -11 -6 -20 -17 -20 -24 0 -7 -9 -23 -20 -36
-11 -13 -20 -33 -20 -45 0 -14 -7 -25 -18 -27 -13 -4 -21 -18 -25 -43 -3 -20
-13 -42 -22 -49 -9 -6 -17 -21 -18 -33 0 -12 -4 -20 -8 -17 -10 6 -27 -18 -35
-51 -4 -17 -16 -36 -26 -43 -10 -7 -18 -20 -18 -28 0 -8 -4 -14 -8 -14 -12 0
-32 -47 -32 -75 0 -17 -4 -23 -14 -19 -9 3 -17 -3 -22 -18 -4 -12 -14 -28 -22
-34 -8 -6 -15 -25 -16 -42 0 -18 -5 -32 -9 -32 -5 0 -5 -4 -2 -10 3 -5 0 -7
-9 -4 -10 4 -17 -2 -21 -19 -4 -14 -15 -33 -26 -43 -10 -9 -19 -27 -19 -38 0
-12 -9 -27 -20 -34 -11 -7 -20 -17 -20 -23 0 -6 -9 -22 -20 -36 -11 -14 -20
-38 -20 -53 0 -20 -5 -27 -17 -26 -10 0 -19 -7 -21 -19 -2 -11 -10 -25 -17
-31 -8 -6 -16 -24 -19 -40 -3 -16 -15 -35 -26 -43 -11 -7 -20 -19 -20 -26 0
-6 -9 -20 -20 -30 -11 -10 -20 -28 -20 -40 0 -12 -9 -30 -20 -40 -12 -10 -19
-24 -16 -31 3 -7 -1 -15 -8 -17 -8 -3 -23 -26 -36 -51 -12 -25 -26 -46 -31
-46 -5 0 -9 -6 -9 -13 0 -7 -11 -28 -25 -47 -14 -19 -25 -42 -25 -52 0 -10 -7
-18 -15 -18 -8 0 -17 -11 -21 -25 -3 -14 -13 -29 -21 -33 -8 -5 -15 -20 -17
-33 -1 -14 -10 -34 -19 -45 -59 -66 -67 -79 -67 -109 0 -25 -4 -32 -17 -31
-11 0 -19 -8 -23 -24 -3 -14 -12 -25 -20 -25 -8 0 -16 -9 -19 -20 -2 -11 -12
-26 -22 -33 -21 -15 -27 -40 -6 -26 7 5 -2 -4 -20 -19 -18 -16 -33 -39 -33
-51 0 -11 -9 -27 -20 -34 -11 -7 -20 -17 -20 -23 0 -5 -9 -19 -20 -31 -11 -12
-20 -30 -20 -39 0 -10 -9 -24 -20 -32 -11 -8 -17 -16 -14 -20 3 -3 -6 -13 -20
-22 -14 -10 -26 -22 -26 -28 0 -6 -10 -21 -21 -34 -12 -12 -22 -36 -23 -53 -1
-22 -6 -30 -19 -30 -10 0 -22 -11 -27 -25 -5 -14 -14 -25 -20 -25 -5 0 -10 -6
-10 -14 0 -8 -8 -21 -18 -28 -9 -7 -23 -24 -30 -38 -35 -71 -58 -108 -67 -109
-5 -1 -11 -7 -11 -14 -1 -6 -2 -17 -3 -24 -1 -7 -8 -10 -18 -6 -13 5 -15 3 -9
-12 4 -11 4 -16 0 -12 -10 10 -54 -53 -54 -79 0 -13 -8 -24 -20 -27 -11 -3
-20 -14 -20 -25 0 -11 -9 -22 -20 -25 -11 -3 -20 -12 -20 -21 0 -9 -9 -25 -20
-36 -11 -11 -20 -31 -20 -45 0 -16 -6 -25 -15 -25 -9 0 -20 -11 -24 -24 -5
-13 -17 -26 -25 -29 -9 -4 -16 -13 -16 -21 0 -8 -9 -18 -20 -21 -11 -3 -20
-14 -20 -23 0 -10 -9 -23 -21 -30 -11 -7 -18 -19 -15 -27 2 -7 -2 -16 -10 -19
-8 -3 -22 -22 -32 -43 -9 -21 -23 -43 -31 -49 -8 -6 -11 -15 -8 -21 4 -6 -5
-15 -18 -21 -22 -10 -31 -29 -26 -55 1 -5 -3 -6 -8 -3 -10 7 -41 -36 -41 -57
0 -8 -10 -17 -21 -20 -15 -4 -20 -11 -15 -22 4 -11 -2 -19 -19 -25 -14 -5 -25
-16 -25 -24 0 -7 -9 -16 -20 -19 -11 -3 -20 -12 -20 -21 0 -9 -9 -25 -20 -36
-12 -12 -18 -25 -15 -30 4 -6 -1 -10 -9 -10 -18 0 -36 -30 -36 -58 0 -11 -9
-22 -20 -25 -12 -3 -20 -14 -20 -26 0 -12 -6 -21 -15 -21 -16 0 -24 -13 -29
-47 -2 -10 -10 -17 -20 -15 -9 2 -16 -3 -16 -11 0 -8 -9 -24 -19 -36 -11 -13
-23 -36 -26 -51 -4 -19 -11 -27 -20 -24 -9 4 -16 -3 -21 -20 -3 -14 -13 -26
-21 -26 -8 0 -12 -4 -9 -8 2 -4 -9 -18 -25 -31 -16 -13 -29 -32 -29 -42 0 -12
-5 -16 -14 -13 -9 3 -17 -3 -21 -15 -3 -12 -15 -26 -26 -31 -10 -6 -19 -16
-19 -23 0 -7 -9 -18 -20 -25 -11 -7 -20 -18 -20 -25 0 -7 -9 -18 -20 -25 -11
-7 -20 -19 -20 -27 0 -8 -6 -15 -13 -15 -8 0 -19 -11 -25 -25 -6 -14 -16 -25
-22 -25 -5 0 -10 -6 -10 -13 0 -8 -27 -43 -60 -78 -33 -35 -60 -65 -60 -67 0
-2 -19 -23 -42 -46 -24 -24 -65 -68 -92 -99 -44 -51 -53 -57 -89 -57 -30 0
-44 6 -59 25 -11 14 -29 25 -41 25 -11 0 -31 10 -45 23 -21 20 -34 22 -124 22
-93 0 -102 -2 -116 -22 -12 -19 -24 -23 -63 -23 -35 0 -51 -5 -61 -19 -7 -10
-28 -22 -47 -26 -20 -4 -35 -14 -38 -26 -3 -10 -10 -19 -16 -19 -5 0 -19 -9
-31 -20 -12 -11 -36 -33 -53 -49 -18 -16 -33 -38 -33 -49 0 -12 -9 -22 -21
-25 -14 -4 -20 -11 -16 -20 3 -9 -2 -17 -14 -20 -10 -3 -22 -13 -26 -23 -3
-10 -15 -26 -25 -36 -10 -10 -18 -30 -18 -46 0 -16 -8 -32 -20 -40 -13 -8 -20
-23 -20 -45 0 -21 -7 -36 -20 -45 -14 -8 -20 -23 -20 -48 0 -21 -8 -47 -20
-61 -18 -23 -20 -41 -20 -155 0 -115 -2 -133 -20 -155 -27 -34 -27 -102 0
-135 17 -23 19 -44 22 -212 3 -175 2 -186 -15 -186 -11 0 -21 -9 -24 -20 -3
-13 -19 -24 -44 -30 -28 -8 -39 -16 -39 -30 0 -13 -5 -18 -16 -13 -9 3 -26 -5
-42 -19 -15 -14 -35 -28 -44 -31 -10 -4 -18 -13 -18 -22 0 -8 -9 -15 -19 -15
-11 0 -32 -13 -47 -29 -15 -16 -33 -27 -40 -24 -7 2 -15 -4 -18 -15 -4 -11
-18 -23 -32 -26 -14 -4 -22 -11 -19 -16 3 -6 -1 -7 -9 -4 -10 4 -16 1 -16 -9
0 -9 -10 -17 -22 -19 -13 -2 -23 -10 -23 -18 0 -8 -15 -20 -35 -26 -19 -6 -40
-20 -45 -31 -6 -11 -16 -18 -22 -16 -7 3 -25 -8 -41 -24 -46 -44 -83 -73 -93
-73 -5 0 -9 -9 -9 -19 0 -13 -8 -21 -23 -23 -12 -2 -21 -9 -19 -16 1 -8 -2
-11 -8 -7 -10 6 -26 -4 -65 -42 -12 -13 -28 -23 -34 -23 -6 0 -16 -11 -21 -25
-7 -18 -17 -25 -35 -25 -14 0 -28 -7 -32 -16 -3 -8 -16 -20 -29 -25 -14 -5
-24 -17 -24 -29 0 -13 -7 -20 -19 -20 -32 0 -51 -11 -51 -30 0 -11 -7 -17 -17
-16 -10 0 -22 -9 -28 -21 -5 -13 -17 -23 -26 -23 -20 0 -52 -34 -42 -45 5 -4
4 -6 -2 -3 -16 9 -55 -10 -55 -27 0 -8 -7 -15 -15 -15 -15 0 -38 -34 -29 -43
3 -3 -1 -5 -8 -4 -32 1 -49 -4 -43 -13 3 -6 -1 -7 -9 -4 -11 4 -16 0 -16 -10
0 -9 -8 -16 -20 -16 -13 0 -22 -9 -26 -25 -4 -16 -13 -25 -26 -25 -12 0 -17
-4 -12 -12 5 -7 3 -8 -5 -4 -8 5 -26 -7 -49 -31 -20 -22 -45 -43 -56 -46 -11
-4 -16 -13 -12 -22 4 -10 -1 -15 -15 -15 -11 0 -31 -11 -45 -25 -14 -14 -29
-25 -34 -25 -5 0 -15 -8 -22 -19 -7 -10 -28 -26 -45 -35 -18 -9 -33 -24 -33
-33 0 -9 -3 -13 -6 -10 -11 11 -46 -14 -40 -29 4 -10 -2 -14 -19 -14 -18 0
-25 -5 -25 -20 0 -13 -7 -20 -18 -20 -21 0 -52 -30 -52 -49 0 -7 -4 -10 -8 -7
-5 3 -29 -15 -55 -40 -25 -24 -52 -44 -59 -44 -22 -1 -91 -68 -82 -81 4 -7 3
-10 -3 -6 -13 8 -53 -21 -53 -39 0 -8 -7 -14 -15 -14 -9 0 -19 -8 -22 -17 -10
-26 -29 -43 -38 -35 -5 4 -5 -1 -2 -11 5 -13 0 -20 -18 -27 -15 -6 -25 -17
-25 -30 0 -12 -7 -20 -16 -20 -10 0 -14 -5 -10 -16 3 -8 2 -12 -4 -9 -6 3 -10
2 -10 -2 0 -5 -15 -13 -32 -18 -22 -7 -33 -16 -32 -27 1 -10 -2 -15 -7 -12
-12 7 -84 -66 -84 -86 0 -9 -8 -14 -18 -12 -11 2 -21 -6 -26 -21 -5 -13 -17
-27 -25 -30 -9 -4 -16 -16 -16 -27 0 -11 -3 -19 -7 -19 -22 4 -35 -3 -30 -15
3 -8 -5 -19 -19 -26 -24 -13 -35 -47 -11 -35 6 4 4 0 -5 -8 -10 -8 -18 -24
-18 -35 0 -14 -5 -20 -14 -16 -8 3 -18 -5 -25 -23 -6 -15 -18 -39 -26 -53 -8
-14 -15 -43 -15 -64 0 -23 -7 -47 -18 -59 -16 -18 -17 -62 -19 -579 -2 -331 1
-557 6 -554 5 4 7 -4 4 -15 -4 -14 0 -26 10 -34 14 -10 17 -32 18 -119 1 -90
4 -108 19 -119 15 -10 19 -30 22 -115 3 -84 7 -104 22 -115 13 -10 18 -27 18
-72 0 -59 11 -93 31 -107 6 -4 10 -26 9 -49 -4 -61 6 -100 25 -97 14 3 16 -7
14 -59 -1 -39 2 -63 8 -63 6 0 8 -6 5 -14 -3 -7 2 -20 10 -29 9 -9 16 -30 16
-47 0 -36 26 -104 37 -97 5 3 9 -16 9 -41 1 -27 8 -50 16 -56 14 -10 34 -96
29 -124 -1 -7 7 -24 18 -39 12 -14 21 -40 21 -58 0 -19 8 -39 20 -50 11 -10
20 -31 20 -46 0 -16 9 -37 22 -48 13 -13 21 -32 20 -51 0 -19 6 -35 19 -43 13
-10 20 -29 23 -62 2 -30 10 -53 20 -61 9 -6 18 -29 20 -49 1 -21 10 -43 19
-50 9 -7 17 -21 17 -32 0 -11 8 -31 19 -44 10 -13 21 -41 25 -62 4 -21 14 -41
22 -44 7 -3 14 -16 14 -30 0 -13 4 -21 10 -18 6 4 7 -1 3 -11 -4 -10 0 -21 9
-28 8 -6 18 -28 22 -50 5 -25 14 -40 26 -43 11 -3 16 -11 13 -19 -3 -8 0 -14
7 -14 6 0 9 -4 6 -9 -7 -11 43 -111 55 -111 5 0 9 -8 9 -17 0 -27 25 -68 39
-65 7 1 10 -2 6 -7 -9 -16 23 -83 36 -75 7 4 9 3 5 -4 -3 -6 -2 -13 3 -17 6
-3 8 -12 5 -20 -3 -7 4 -18 15 -25 14 -7 21 -21 21 -40 0 -19 7 -34 20 -42 11
-7 20 -22 20 -34 0 -12 9 -33 20 -47 11 -14 20 -30 20 -36 0 -6 9 -16 20 -23
11 -7 20 -23 20 -35 0 -13 9 -32 20 -43 11 -11 20 -25 20 -31 0 -5 4 -7 10 -4
6 3 7 -1 4 -9 -4 -11 0 -16 10 -16 9 0 16 -8 16 -20 0 -12 10 -24 24 -30 19
-7 23 -14 19 -31 -5 -17 -3 -20 7 -14 9 6 11 4 5 -5 -5 -8 -2 -17 7 -24 9 -6
17 -20 19 -31 2 -11 14 -25 27 -31 12 -6 19 -14 16 -17 -11 -11 17 -66 37 -72
10 -4 16 -12 12 -20 -3 -8 2 -18 11 -21 9 -3 16 -12 16 -20 0 -7 8 -19 18 -26
9 -7 25 -30 35 -51 9 -21 21 -36 25 -33 4 2 9 -5 9 -17 1 -12 11 -29 23 -39
11 -9 20 -23 20 -32 0 -9 7 -16 15 -16 9 0 20 -11 25 -25 5 -14 16 -25 25 -25
14 0 20 -12 16 -34 -3 -14 29 -57 38 -51 5 2 15 -3 22 -12 10 -12 10 -14 2 -9
-7 4 -13 2 -13 -4 0 -6 11 -15 25 -20 14 -5 25 -12 25 -15 0 -4 -4 -3 -10 0
-5 3 -10 1 -10 -4 0 -6 9 -16 20 -23 11 -7 20 -18 20 -25 0 -7 9 -18 20 -25
11 -7 20 -19 20 -26 0 -7 11 -17 24 -23 15 -7 22 -17 19 -29 -3 -10 7 -29 21
-45 14 -15 26 -33 26 -39 0 -15 37 -46 45 -38 3 4 3 -2 -1 -13 -6 -14 -4 -17
9 -12 9 3 16 3 15 -1 -4 -16 14 -52 27 -52 7 0 16 -11 19 -25 4 -14 13 -25 21
-25 8 0 15 -6 15 -14 0 -8 7 -17 16 -20 8 -3 12 -11 9 -16 -8 -13 14 -42 26
-34 5 3 6 -1 4 -8 -3 -8 6 -24 20 -36 14 -12 25 -26 25 -31 0 -5 9 -12 19 -16
12 -3 18 -12 15 -20 -3 -7 4 -18 15 -25 12 -6 21 -17 21 -26 0 -8 7 -17 16
-21 8 -3 20 -16 25 -29 4 -13 15 -24 23 -24 7 0 16 -10 19 -21 4 -14 11 -20
21 -16 10 4 16 -2 18 -21 2 -16 11 -28 23 -32 11 -3 20 -12 20 -20 0 -8 5 -14
12 -13 6 1 16 -11 22 -28 7 -20 16 -29 28 -27 12 2 17 -2 15 -14 -1 -9 6 -22
16 -30 10 -7 21 -21 25 -31 3 -9 11 -16 17 -15 6 2 17 -14 25 -35 14 -40 43
-69 59 -60 5 4 6 1 2 -5 -8 -13 42 -85 53 -78 4 3 8 -5 8 -16 1 -11 11 -27 22
-35 12 -8 21 -21 21 -29 0 -8 5 -12 10 -9 6 3 10 1 10 -5 0 -6 5 -8 10 -5 6 4
10 3 9 -2 -4 -25 3 -41 21 -46 11 -3 20 -12 20 -21 0 -25 31 -67 43 -59 6 3 7
1 3 -5 -3 -6 2 -19 12 -29 11 -10 25 -28 31 -41 8 -15 18 -21 27 -18 8 3 13 2
10 -2 -8 -13 22 -44 35 -36 7 4 10 3 5 -4 -11 -19 116 -157 138 -149 10 4 16
-1 18 -16 2 -12 9 -21 15 -20 7 2 15 -6 18 -17 4 -11 11 -20 16 -20 6 0 7 -4
4 -10 -3 -5 1 -10 9 -10 9 0 16 -8 16 -19 0 -11 5 -23 12 -27 7 -5 8 -3 3 6
-5 8 -4 11 3 6 6 -4 9 -13 6 -20 -6 -17 22 -40 40 -33 9 4 16 -3 20 -18 4 -14
15 -29 26 -35 11 -6 20 -16 20 -23 0 -7 10 -17 23 -22 12 -6 21 -17 19 -24 -1
-7 7 -15 18 -18 11 -3 20 -14 20 -24 0 -11 7 -19 16 -19 9 0 18 -9 21 -21 4
-12 11 -18 20 -15 8 3 11 1 8 -4 -3 -6 -2 -10 3 -10 5 0 12 -9 15 -21 3 -13
12 -19 23 -17 12 2 19 -3 19 -14 0 -21 64 -79 79 -71 6 3 8 3 4 -2 -4 -4 6
-21 22 -39 17 -17 30 -35 30 -40 0 -4 7 -6 15 -3 8 4 17 1 21 -5 5 -7 2 -8 -6
-3 -9 5 -11 4 -6 -3 4 -7 13 -12 21 -12 7 0 17 -9 20 -21 4 -11 13 -18 20 -15
8 3 16 -5 19 -20 4 -14 17 -30 30 -36 16 -7 22 -16 18 -26 -4 -11 -1 -14 10
-9 12 4 19 -3 27 -25 7 -21 15 -28 26 -24 8 3 14 2 14 -2 -4 -24 3 -41 20 -47
10 -3 21 -15 24 -27 4 -14 11 -19 22 -14 9 3 13 2 10 -4 -3 -5 5 -21 19 -35
15 -14 26 -28 26 -32 0 -3 17 -22 38 -42 21 -21 42 -46 45 -55 4 -11 13 -16
22 -12 10 3 15 -1 15 -13 0 -19 45 -63 55 -53 3 4 3 -1 -1 -11 -4 -13 -1 -17
15 -17 12 0 20 -3 20 -7 -4 -24 3 -35 17 -29 8 3 13 2 10 -3 -3 -5 17 -32 44
-61 28 -29 64 -68 80 -87 17 -19 35 -31 40 -28 6 4 9 1 8 -7 -2 -7 3 -12 10
-10 8 1 11 -2 7 -8 -9 -15 13 -40 35 -40 9 0 22 -11 28 -25 6 -14 18 -25 27
-25 8 0 15 -7 15 -15 0 -8 9 -19 20 -25 11 -6 20 -17 20 -25 0 -7 9 -17 20
-20 11 -3 20 -11 20 -16 0 -6 4 -8 9 -4 5 3 13 0 17 -6 4 -8 3 -9 -4 -5 -7 4
-12 2 -12 -3 0 -6 6 -11 14 -11 8 0 18 -9 21 -20 3 -11 10 -20 14 -20 5 0 21
-12 36 -26 15 -14 33 -23 40 -20 8 3 18 -7 24 -25 5 -16 16 -29 24 -29 8 0 17
-10 20 -21 4 -14 11 -20 21 -16 9 4 15 3 15 -1 -3 -20 2 -33 11 -27 6 3 7 -1
4 -9 -4 -10 -1 -16 9 -16 9 0 19 -9 22 -20 6 -18 17 -24 38 -21 4 0 7 -8 7
-19 0 -21 32 -44 45 -32 5 4 5 1 1 -5 -8 -14 99 -130 116 -125 5 1 7 -1 4 -6
-7 -11 79 -96 91 -89 11 6 28 -14 28 -33 0 -8 10 -16 23 -18 12 -2 20 -8 17
-13 -7 -10 57 -79 74 -79 6 0 11 -7 11 -15 0 -14 13 -20 35 -15 5 1 7 -1 3 -5
-9 -9 34 -54 46 -47 5 3 6 0 3 -5 -9 -14 29 -47 44 -37 7 4 10 3 7 -2 -7 -11
57 -76 66 -66 4 3 4 -2 0 -12 -5 -13 -2 -17 11 -14 11 2 19 -4 21 -17 1 -10
11 -26 22 -35 10 -8 22 -23 25 -32 4 -10 11 -18 17 -18 6 0 8 5 4 12 -4 7 -3
8 4 4 7 -4 12 -14 12 -23 0 -19 59 -75 71 -67 5 3 8 0 7 -8 -2 -7 3 -12 10
-10 8 1 11 -2 8 -7 -4 -5 4 -20 16 -33 13 -13 38 -41 55 -62 18 -21 37 -35 43
-31 5 3 7 0 5 -7 -8 -19 70 -92 89 -85 10 4 16 1 16 -9 0 -8 4 -12 10 -9 6 3
7 -1 4 -9 -4 -10 -1 -16 9 -16 8 0 18 -7 21 -16 3 -8 11 -12 17 -8 8 4 9 3 5
-5 -4 -6 0 -14 8 -17 9 -3 16 -10 16 -15 0 -17 75 -79 92 -75 11 2 18 -4 22
-20 4 -13 15 -28 26 -34 11 -6 20 -18 20 -26 0 -9 6 -14 13 -11 15 5 32 -12
32 -33 0 -8 9 -15 20 -15 11 0 20 -7 20 -15 0 -20 72 -93 84 -85 6 3 13 0 17
-6 4 -8 3 -9 -4 -5 -7 4 -12 3 -12 -3 0 -6 9 -15 20 -21 11 -6 20 -15 20 -21
0 -13 71 -75 83 -71 4 1 6 -2 2 -7 -7 -13 33 -54 45 -46 6 3 7 -1 4 -10 -5
-11 2 -19 25 -28 17 -6 31 -14 31 -18 0 -8 58 -69 66 -69 3 0 2 6 -2 13 -5 8
-3 8 9 -2 9 -7 14 -17 11 -22 -2 -5 5 -16 17 -26 12 -10 30 -27 41 -38 11 -11
27 -20 36 -20 9 0 21 -10 27 -23 5 -12 18 -25 27 -28 10 -3 18 -12 18 -20 0
-8 7 -17 16 -21 8 -3 20 -16 25 -29 5 -14 17 -24 28 -24 14 0 19 -5 15 -15 -4
-9 1 -18 11 -21 9 -4 21 -17 26 -30 4 -13 15 -24 24 -24 8 0 15 -6 15 -13 0
-17 79 -89 89 -82 5 2 8 -1 7 -9 -1 -13 78 -86 94 -86 4 0 10 -9 13 -20 3 -11
12 -20 21 -20 9 0 16 -7 16 -15 0 -8 9 -19 19 -25 11 -5 23 -19 26 -30 3 -11
13 -20 21 -20 8 0 14 -7 14 -15 0 -8 11 -22 25 -31 14 -9 25 -23 25 -31 0 -9
6 -13 15 -9 8 3 15 1 15 -4 0 -10 64 -80 74 -80 4 0 4 5 0 12 -4 7 -3 8 5 4 6
-4 9 -11 7 -15 -9 -14 52 -64 68 -58 11 5 16 0 16 -13 0 -11 9 -24 19 -30 11
-5 23 -19 26 -30 3 -11 13 -20 21 -20 8 0 14 -5 14 -11 0 -5 5 -7 12 -3 7 4 8
3 4 -4 -4 -6 11 -30 34 -53 22 -23 40 -46 40 -51 0 -6 7 -7 16 -4 9 3 12 2 9
-4 -4 -6 7 -23 24 -39 17 -16 31 -34 31 -40 0 -6 4 -11 9 -11 5 0 31 -22 57
-50 26 -27 51 -47 56 -44 5 3 8 2 7 -3 -4 -22 4 -32 36 -47 19 -9 35 -23 35
-31 0 -8 7 -15 15 -15 9 0 20 -12 25 -26 7 -16 16 -24 25 -21 9 4 15 -2 17
-16 2 -12 9 -21 15 -20 6 1 16 -11 22 -28 7 -22 15 -29 26 -25 14 5 19 -4 16
-31 -1 -6 7 -14 18 -18 10 -3 21 -15 24 -25 3 -11 12 -20 21 -20 9 0 16 -6 16
-13 0 -7 11 -23 25 -35 14 -12 25 -26 25 -32 0 -5 7 -10 15 -10 8 0 15 -7 15
-15 0 -8 9 -19 21 -25 11 -6 37 -29 57 -50 20 -22 49 -44 65 -49 15 -6 27 -18
27 -27 0 -10 5 -14 16 -10 8 3 12 2 9 -3 -3 -6 16 -31 43 -58 26 -26 51 -56
55 -67 4 -11 13 -16 23 -12 8 3 12 2 9 -4 -3 -5 5 -21 18 -34 13 -13 27 -32
31 -41 4 -10 12 -15 22 -11 8 3 12 2 9 -4 -3 -5 5 -21 19 -35 15 -14 26 -30
26 -35 0 -5 9 -14 20 -20 11 -6 20 -17 20 -25 0 -7 9 -17 20 -20 11 -3 20 -11
20 -17 0 -15 47 -57 55 -50 3 4 3 -1 -1 -11 -4 -12 -1 -17 10 -17 9 0 16 -6
16 -13 0 -17 46 -58 55 -49 3 4 3 -1 -1 -11 -4 -12 -1 -17 10 -17 9 0 16 -4
16 -10 0 -13 77 -90 90 -90 5 0 7 -6 4 -14 -6 -16 29 -40 41 -28 5 4 5 1 1 -5
-8 -14 99 -130 115 -125 5 1 8 -1 8 -5 -4 -23 3 -35 16 -29 8 3 14 0 12 -7 -1
-7 3 -11 10 -10 7 2 10 -3 7 -11 -3 -8 3 -19 15 -26 12 -6 21 -17 21 -24 0
-14 27 -31 43 -27 5 1 6 -3 3 -8 -7 -10 51 -76 68 -76 6 -1 10 -6 9 -12 -3
-14 55 -78 70 -78 6 0 11 -7 13 -16 2 -21 54 -80 64 -74 4 2 7 -2 7 -10 0 -21
56 -84 71 -79 7 2 10 0 7 -6 -7 -11 125 -151 137 -144 5 3 8 2 7 -3 -4 -21 3
-32 30 -43 16 -6 31 -20 34 -31 3 -10 12 -19 21 -19 9 0 17 -6 17 -12 1 -7 2
-18 3 -25 2 -21 78 -103 89 -96 5 3 7 1 4 -4 -9 -15 69 -93 92 -93 15 0 18 -5
13 -22 -4 -16 -2 -19 8 -13 9 6 11 4 6 -4 -9 -13 22 -54 34 -46 4 3 10 -5 13
-16 3 -12 10 -18 17 -14 6 4 9 1 8 -7 -2 -7 3 -12 10 -10 8 1 11 -2 7 -8 -8
-13 14 -42 26 -34 5 3 9 2 8 -3 -4 -22 2 -35 15 -30 16 6 40 -16 29 -27 -9 -9
56 -76 85 -87 12 -5 22 -15 22 -23 0 -8 9 -18 20 -21 11 -3 20 -13 20 -21 0
-8 11 -19 25 -24 15 -6 23 -15 19 -24 -3 -9 3 -17 15 -21 12 -3 21 -13 21 -21
0 -8 11 -19 25 -24 17 -6 23 -14 19 -25 -8 -19 34 -67 49 -58 6 3 7 1 4 -4
-10 -15 63 -95 80 -89 9 4 18 -5 25 -24 5 -17 14 -30 20 -30 12 0 43 -30 31
-30 -4 0 0 -5 10 -11 9 -5 17 -17 17 -25 0 -9 5 -12 12 -8 7 4 8 3 4 -5 -9
-14 12 -43 25 -35 5 3 8 0 7 -8 -2 -7 3 -12 10 -10 8 1 11 -2 7 -8 -9 -14 14
-42 28 -33 5 3 7 1 4 -4 -9 -15 29 -56 44 -47 8 5 9 3 4 -5 -9 -16 62 -91 87
-91 11 0 18 -7 18 -19 0 -11 9 -23 20 -26 11 -3 20 -13 20 -21 0 -8 11 -19 25
-24 16 -6 23 -15 19 -25 -4 -10 3 -18 20 -25 14 -5 24 -15 21 -22 -3 -7 6 -26
20 -43 67 -83 79 -95 92 -95 8 0 12 -4 9 -8 -7 -11 23 -54 33 -47 5 2 17 -5
27 -18 16 -18 16 -19 2 -8 -12 9 -18 10 -18 2 0 -6 9 -16 20 -23 11 -7 20 -16
20 -21 0 -11 70 -82 80 -82 5 0 15 -7 22 -15 11 -12 11 -12 -4 -1 -12 9 -18
10 -18 2 0 -6 9 -16 20 -23 11 -7 20 -18 20 -25 0 -7 9 -17 20 -23 11 -6 20
-17 20 -25 0 -7 9 -17 20 -20 11 -3 20 -13 20 -21 0 -8 7 -17 16 -21 8 -3 20
-16 25 -29 5 -14 17 -24 28 -24 14 0 19 -5 15 -15 -4 -9 1 -18 11 -21 9 -4 21
-17 26 -30 5 -15 17 -24 29 -24 12 0 18 -4 15 -11 -8 -12 54 -79 72 -79 7 0
10 -6 7 -13 -2 -7 7 -23 21 -35 14 -12 25 -27 25 -32 0 -6 7 -10 16 -8 10 2
18 -5 20 -16 1 -10 12 -27 23 -37 12 -11 21 -24 21 -29 0 -6 5 -10 11 -10 8 0
7 6 -2 18 -12 15 -11 15 8 -1 12 -11 20 -24 17 -31 -5 -12 41 -58 49 -50 3 3
4 -3 4 -13 -1 -11 4 -18 15 -17 10 1 15 -2 12 -7 -3 -5 6 -19 19 -31 13 -13
26 -31 30 -40 3 -10 11 -18 17 -18 6 0 8 6 4 13 -6 9 -3 8 8 -1 9 -8 14 -20
11 -28 -3 -7 2 -17 12 -20 9 -4 21 -18 26 -31 5 -15 15 -23 26 -21 12 2 17 -3
15 -14 -1 -9 6 -22 16 -30 10 -7 21 -21 25 -30 3 -10 13 -18 22 -18 8 0 15 -6
15 -14 0 -8 8 -21 18 -28 10 -7 21 -21 25 -30 3 -10 15 -18 26 -18 13 0 18 -5
15 -13 -5 -14 41 -59 51 -49 3 4 3 -1 -1 -11 -4 -13 -1 -17 15 -17 12 0 18 -5
15 -13 -5 -14 41 -59 51 -49 3 4 3 -2 -1 -12 -5 -13 -2 -17 11 -14 11 2 19 -4
21 -15 1 -10 21 -36 43 -56 23 -21 41 -42 42 -47 2 -19 131 -126 145 -120 9 4
14 -1 14 -15 0 -11 10 -24 24 -30 14 -7 22 -17 19 -25 -3 -8 -1 -14 4 -14 6 0
24 -14 42 -30 17 -17 35 -28 40 -26 5 3 8 -2 7 -12 -1 -11 10 -20 32 -27 17
-5 32 -13 32 -18 0 -4 4 -5 10 -2 6 3 7 -1 4 -9 -3 -9 -1 -16 5 -16 5 0 28
-19 50 -41 25 -26 44 -38 52 -34 7 5 10 4 6 -2 -8 -13 20 -26 36 -16 7 3 9 3
5 -2 -11 -12 12 -47 27 -41 8 3 17 -3 20 -14 3 -11 22 -25 41 -32 18 -6 34
-18 34 -25 0 -14 39 -34 51 -27 4 2 6 -4 5 -13 0 -11 10 -21 29 -27 17 -6 36
-19 44 -29 7 -10 19 -16 27 -13 7 3 16 1 20 -5 3 -6 13 -8 21 -5 8 3 12 2 8
-3 -9 -16 27 -43 51 -38 17 3 25 -1 30 -15 6 -21 50 -42 71 -34 7 3 13 -1 13
-9 0 -20 30 -34 68 -33 22 1 39 -7 56 -25 20 -21 34 -27 69 -27 35 0 46 -4 50
-19 6 -23 48 -29 194 -27 55 0 99 -3 96 -8 -16 -25 95 -37 116 -13 6 8 9 16 7
18 -2 2 32 4 77 5 115 0 158 8 173 29 10 13 25 18 54 17 25 -1 39 2 35 8 -3 5
0 7 9 4 9 -3 21 4 31 20 10 14 21 23 26 20 14 -8 49 6 49 21 0 7 16 16 35 19
19 4 38 14 43 22 4 8 24 23 43 32 19 10 33 23 31 31 -1 7 1 10 5 8 16 -9 55
13 49 28 -5 15 4 19 35 16 9 -1 27 11 41 27 13 16 28 27 34 25 14 -5 66 36 59
47 -3 5 0 12 6 16 8 4 9 3 5 -4 -4 -7 -3 -12 3 -12 6 0 15 9 21 20 6 11 17 20
25 20 18 0 95 70 95 86 0 7 5 16 12 20 7 4 8 3 4 -4 -4 -7 -3 -12 1 -12 15 0
33 23 33 42 0 12 5 15 16 11 10 -4 17 1 21 16 3 12 13 21 25 21 21 0 71 48 63
61 -3 4 0 11 6 15 8 4 9 3 5 -4 -12 -20 1 -13 34 18 17 16 29 34 25 40 -3 6 4
10 17 10 27 0 111 77 102 92 -4 6 -3 8 2 5 14 -8 24 0 82 71 29 35 49 68 46
74 -4 7 -2 8 5 4 6 -4 21 5 35 21 56 65 94 103 105 103 6 0 11 4 11 9 0 4 14
22 30 40 17 17 28 36 25 41 -3 6 1 7 10 4 11 -5 18 0 22 15 3 11 12 21 20 21
20 0 65 51 58 68 -3 8 3 16 15 19 11 3 17 10 13 16 -3 6 -1 7 6 3 13 -8 93 72
85 86 -3 5 0 7 8 6 7 -2 22 16 33 40 11 23 25 42 32 42 7 0 13 5 13 10 0 6 11
20 25 32 14 12 25 28 25 35 0 7 7 13 16 13 10 0 14 5 10 16 -3 8 -2 13 2 11 4
-3 16 6 27 20 11 13 30 35 43 49 12 14 22 29 22 35 0 5 6 9 14 9 14 0 32 36
28 52 -1 4 6 4 15 1 13 -5 15 -2 9 12 -4 11 -4 16 0 12 9 -9 56 42 49 54 -4 5
3 9 14 9 17 0 33 24 36 52 0 3 4 10 9 15 5 5 6 3 2 -5 -4 -6 -2 -12 3 -12 10
0 15 14 12 33 -1 5 3 6 8 3 13 -9 74 71 65 85 -4 8 -3 9 4 5 7 -4 12 0 12 10
0 9 12 27 26 40 14 13 23 28 20 32 -2 4 5 9 16 9 27 2 71 49 62 66 -4 6 -4 9
1 5 11 -10 37 11 29 23 -3 5 -1 8 5 7 13 -4 92 83 85 94 -3 4 1 6 8 3 16 -6
78 83 78 113 0 15 5 20 15 16 8 -4 15 -1 15 5 0 6 11 21 25 33 14 12 23 28 21
35 -3 7 0 13 6 13 13 0 78 65 78 78 0 5 18 26 40 48 22 21 38 45 35 51 -2 7 0
12 4 10 15 -4 83 72 75 85 -4 6 -3 8 3 5 11 -7 49 41 45 55 -1 4 5 5 13 2 8
-4 15 -1 15 4 0 6 20 32 45 57 25 25 43 50 40 56 -4 5 -2 8 3 7 14 -4 84 71
77 82 -3 6 2 13 12 17 31 11 107 100 108 126 1 7 6 11 13 10 16 -4 84 88 78
104 -4 8 5 17 19 23 14 5 25 16 25 24 0 9 9 20 21 26 11 7 18 17 16 25 -3 7 6
18 20 24 16 7 23 17 19 27 -3 8 -2 13 3 10 12 -8 133 143 125 156 -4 7 -3 8 4
4 8 -4 16 3 22 18 5 14 12 26 15 26 4 0 3 -6 -1 -12 -4 -7 20 15 54 49 34 35
62 67 62 72 0 6 7 14 16 19 8 5 17 17 18 28 2 10 7 19 13 19 15 0 73 65 70 78
-1 7 3 11 9 10 5 -1 35 25 65 58 30 34 73 81 96 106 24 25 40 50 36 56 -3 5
-2 7 4 4 5 -3 29 15 52 41 92 103 121 143 114 155 -3 5 -2 7 4 4 11 -7 108 97
108 116 0 7 5 12 12 12 16 0 74 66 67 77 -3 5 -2 8 3 7 16 -4 43 13 43 27 0 7
9 18 20 24 11 6 19 19 18 28 -2 9 3 17 10 18 6 1 17 2 22 3 6 0 10 7 10 14 0
6 14 25 30 40 17 16 28 33 25 38 -4 5 1 6 9 3 9 -3 16 -2 16 3 0 5 14 23 30
42 17 18 27 37 24 43 -4 7 -2 8 5 4 6 -4 22 6 39 26 15 18 38 43 50 55 13 12
21 27 17 33 -3 6 -3 10 2 9 14 -3 43 13 43 24 0 5 9 19 21 31 73 75 109 118
103 127 -3 5 -2 9 3 8 21 -4 32 3 38 21 3 11 13 20 21 20 8 0 14 5 14 11 0 5
-5 7 -12 3 -7 -5 -8 -3 -4 5 5 7 10 10 13 7 10 -10 53 38 48 53 -3 9 -3 12 1
9 10 -11 44 10 44 27 0 7 9 16 19 20 10 3 22 17 25 30 4 17 11 23 23 18 10 -4
14 -2 10 4 -4 6 1 10 11 9 11 -1 17 6 17 19 1 11 6 19 12 18 17 -3 95 86 87
99 -4 6 -3 8 4 4 10 -6 27 10 27 28 0 5 9 10 20 12 11 2 21 8 23 13 3 9 22 31
108 123 9 9 13 22 8 29 -4 8 -3 10 4 5 6 -4 18 1 27 11 9 10 36 40 61 66 24
27 42 52 39 58 -4 5 -1 9 6 9 6 0 36 26 65 58 30 31 63 66 74 77 25 25 26 42
3 24 -16 -11 -16 -11 -5 1 7 8 16 15 20 15 10 0 82 70 82 80 0 4 -8 1 -17 -6
-16 -11 -16 -11 -5 1 7 8 17 15 21 15 15 0 132 126 126 136 -4 5 1 6 9 3 10
-4 20 3 27 20 7 14 18 26 26 26 7 0 13 4 13 9 0 6 11 23 25 38 47 53 50 58 47
68 -2 5 -1 7 3 3 10 -10 50 30 50 50 0 10 8 17 20 17 13 0 20 6 19 17 -1 10 4
18 11 18 20 0 66 41 59 52 -4 6 -3 8 3 5 13 -8 56 37 46 48 -5 4 -3 5 4 1 13
-7 56 47 46 58 -4 4 0 4 9 1 11 -5 19 1 24 17 4 13 7 27 6 31 -1 5 2 6 7 3 12
-8 28 13 36 45 4 16 13 26 23 25 9 0 16 5 14 12 -1 8 2 11 8 7 13 -8 41 26 33
39 -4 5 -2 6 4 3 15 -9 67 49 57 65 -4 7 -3 10 1 5 11 -9 45 22 45 41 0 9 3
12 6 9 9 -9 44 11 44 25 0 6 -7 5 -17 -3 -15 -11 -14 -10 1 9 21 24 31 29 20
10 -4 -7 23 18 60 56 36 38 66 75 66 82 0 8 6 11 16 7 10 -4 17 1 21 16 3 11
12 21 21 21 9 0 54 40 101 89 110 113 132 141 126 152 -4 5 0 6 7 4 8 -3 28
13 48 40 18 25 40 45 47 45 7 0 13 5 13 11 0 6 20 30 45 53 25 24 45 50 45 59
0 10 5 14 15 11 9 -4 18 1 22 12 4 11 16 28 26 39 11 11 17 14 12 7 -6 -11 -3
-11 14 0 12 7 24 24 28 38 7 32 23 51 34 44 12 -7 131 115 123 127 -3 5 -1 8
4 7 5 -2 26 14 46 34 38 39 49 60 19 37 -16 -13 -17 -12 -4 4 8 9 16 15 19 13
10 -10 42 15 42 33 0 12 7 18 18 17 10 0 16 6 16 16 -1 10 2 15 7 12 5 -3 9 2
9 10 0 9 6 13 15 10 9 -4 16 3 20 19 5 18 12 24 22 20 17 -7 147 123 138 138
-4 5 3 9 13 9 11 0 22 9 25 20 3 11 12 20 21 20 9 0 16 4 16 9 0 5 20 30 45
54 25 25 45 52 45 61 0 9 6 13 14 10 9 -3 19 5 28 23 7 15 15 26 18 24 11 -9
51 21 46 35 -3 8 0 13 7 11 7 -1 11 4 9 11 -1 8 2 11 8 7 5 -3 14 5 20 19 6
17 14 24 25 20 8 -3 15 -2 15 4 0 6 29 40 65 76 36 36 65 73 65 81 0 9 5 13
10 10 15 -9 40 14 40 36 0 13 5 16 16 12 10 -4 17 1 21 16 3 11 12 21 20 21
20 0 146 128 138 140 -3 6 -1 10 5 10 14 0 166 150 153 151 -4 0 4 6 19 13 50
22 163 140 151 159 -3 5 -2 7 3 4 6 -3 14 -3 20 1 13 10 48 65 49 77 0 6 6 10
12 10 16 0 134 125 128 136 -3 4 0 11 6 15 8 5 9 3 4 -6 -5 -8 -3 -11 6 -8 8
3 13 13 12 22 0 10 1 15 4 12 11 -11 43 15 43 34 0 13 5 18 15 14 9 -4 18 1
22 12 9 25 29 45 37 37 10 -10 77 60 71 75 -2 7 -1 11 3 8 11 -7 52 22 52 36
0 6 -7 5 -17 -3 -16 -11 -16 -11 -5 1 7 8 16 15 20 16 20 2 42 18 42 29 0 8 9
17 20 20 11 3 20 13 20 20 0 8 9 19 20 25 11 6 20 15 20 21 0 6 17 28 38 49
20 22 43 45 49 52 7 7 18 18 24 24 58 57 99 104 99 113 0 6 7 11 16 11 9 0 18
9 21 20 3 10 14 22 24 25 10 4 19 15 19 26 0 10 7 19 16 19 8 0 20 13 25 29 8
21 15 28 27 24 11 -5 14 -2 9 11 -5 12 0 19 18 26 14 5 25 16 25 25 0 8 16 22
36 30 24 10 34 20 31 29 -4 11 -1 13 10 9 13 -5 15 -2 10 11 -4 11 -3 15 4 11
11 -8 40 25 33 37 -3 4 2 5 10 2 9 -3 16 -2 16 3 0 6 23 33 50 62 28 29 48 56
45 61 -3 4 5 10 16 13 15 4 20 11 15 22 -4 10 3 19 20 27 15 7 27 23 31 40 3
15 14 30 25 34 12 3 17 12 14 20 -4 9 4 18 19 24 14 5 25 16 25 24 0 8 9 18
20 21 11 4 20 12 19 18 -3 26 2 35 19 33 11 0 16 6 16 17 -1 10 7 19 22 23 15
4 24 13 24 25 0 10 5 19 11 19 5 0 7 4 4 10 -3 6 1 7 9 4 10 -4 16 -1 16 10 0
8 9 20 21 26 11 7 18 17 16 25 -3 7 5 17 19 24 13 6 24 15 24 21 0 5 18 27 40
49 22 21 40 46 40 54 0 9 5 19 12 23 7 4 8 3 4 -4 -4 -7 -3 -12 3 -12 6 0 16
10 22 23 7 12 19 27 27 33 8 6 12 16 8 23 -5 7 -2 10 6 9 7 -2 12 2 11 9 -2 7
4 10 12 7 8 -4 15 -1 15 5 0 5 9 19 21 30 13 11 18 24 14 32 -5 7 -4 10 1 6 5
-3 17 4 27 16 9 12 29 37 43 54 17 22 23 39 19 53 -4 14 -2 20 9 20 17 0 48
39 40 52 -3 4 2 5 10 2 16 -6 39 32 29 48 -2 4 3 5 11 2 13 -5 33 29 28 48 -1
4 4 5 11 3 12 -5 67 72 67 93 0 6 10 20 22 32 12 11 19 23 15 27 -4 3 3 11 16
18 12 6 21 19 21 28 -1 9 2 15 6 12 11 -7 51 50 42 60 -4 5 -2 5 4 2 14 -8 29
8 39 43 4 14 16 31 26 38 11 7 19 20 19 28 0 8 4 14 8 14 14 0 62 81 55 92 -4
7 -1 8 7 3 10 -6 12 -4 7 8 -3 9 -2 19 4 22 5 4 7 10 4 15 -3 4 3 7 13 6 11 0
18 7 20 22 2 12 10 22 18 22 8 0 14 5 14 11 0 6 10 24 23 39 12 16 32 41 45
57 12 15 20 36 18 46 -2 9 0 17 6 17 5 0 7 4 3 9 -3 5 0 13 6 17 8 4 9 3 5 -4
-4 -7 -4 -12 1 -12 14 1 63 86 65 113 1 14 5 25 8 25 22 -2 31 4 26 17 -3 8
-1 15 5 15 6 0 7 5 3 12 -4 6 -3 8 2 5 15 -9 35 8 37 31 0 11 4 20 7 20 18 -2
30 3 30 12 0 6 10 24 21 39 12 16 18 34 15 40 -4 6 -2 11 4 11 7 0 10 7 6 15
-3 9 0 15 10 15 16 0 37 47 30 67 -3 7 1 13 9 13 8 0 20 10 26 23 7 12 18 26
25 30 8 4 14 13 14 19 0 5 11 24 25 40 14 16 23 34 19 39 -3 5 0 9 7 9 17 0
38 31 39 58 0 12 6 22 15 22 8 0 17 15 21 38 4 20 15 43 26 50 10 7 18 19 18
27 0 8 7 18 17 23 15 9 20 26 22 74 1 11 6 15 16 12 9 -4 18 3 24 18 5 13 16
30 25 37 9 7 16 24 16 37 0 13 10 32 22 44 12 11 19 22 16 26 -3 3 5 16 19 30
13 13 22 30 20 37 -2 7 7 27 20 45 13 18 25 45 26 60 1 16 10 30 21 35 12 5
16 13 12 24 -4 10 -4 15 -1 11 11 -11 43 29 53 66 6 19 7 37 4 41 -4 3 1 3 10
0 18 -7 26 10 30 61 1 23 6 30 17 26 11 -4 13 -1 7 13 -4 11 -4 16 0 12 10 -9
46 62 38 75 -5 7 -2 8 5 3 9 -5 12 -1 9 12 -1 10 7 28 20 41 12 12 22 32 22
45 0 12 9 30 20 40 11 9 20 27 20 40 0 12 9 30 20 40 13 11 20 29 20 52 0 23
5 35 14 35 8 0 19 14 25 30 5 17 14 30 20 30 11 0 20 36 23 93 1 21 9 43 18
50 13 11 13 10 1 -6 -12 -15 -12 -17 3 -11 14 5 20 35 19 91 0 6 6 9 13 6 8
-3 15 -1 16 3 1 10 8 60 10 86 1 9 6 14 10 12 10 -7 25 25 33 73 3 23 13 44
22 47 8 4 13 13 9 21 -3 8 -1 15 4 15 6 0 10 13 10 29 0 16 6 31 14 34 8 3 18
23 22 44 4 21 11 43 16 50 5 7 6 18 2 24 -4 7 -3 9 3 6 14 -9 23 15 23 58 0
21 6 35 16 39 9 4 14 13 10 21 -3 8 0 15 5 15 6 0 9 9 6 20 -3 13 2 28 15 40
15 14 22 35 25 77 2 31 8 60 12 63 16 11 29 46 29 82 0 23 7 43 20 56 16 16
21 33 20 71 0 36 6 58 20 76 13 17 21 40 20 66 0 28 5 44 18 53 19 14 22 31
23 129 1 42 5 57 15 57 17 0 23 26 25 109 2 52 6 68 22 79 17 12 19 26 19 138
0 98 3 126 14 130 21 8 25 35 27 166 1 65 5 116 9 113 4 -3 14 3 21 12 11 13
14 85 14 367 0 352 -5 412 -29 403 -9 -4 -13 10 -15 51 -1 38 -8 66 -21 84
-11 15 -20 36 -20 46 0 11 -8 30 -19 43 -10 13 -22 35 -26 48 -14 46 -111 165
-126 155 -5 -3 -6 2 -3 10 3 8 -4 24 -15 35 -12 12 -21 29 -21 39 0 11 -9 27
-20 37 -11 10 -20 23 -20 28 0 5 -28 37 -62 71 -35 34 -83 86 -108 116 -54 66
-69 79 -92 80 -10 0 -18 5 -18 11 0 21 -71 79 -96 79 -17 0 -24 6 -24 19 0 11
-9 23 -20 26 -11 3 -25 15 -30 26 -6 10 -17 19 -24 19 -8 0 -16 7 -20 15 -3 8
-18 21 -33 27 -15 7 -47 32 -70 55 -23 24 -51 43 -63 43 -11 0 -20 7 -20 15 0
9 -11 21 -25 27 -14 6 -25 17 -25 24 0 14 -22 24 -52 24 -11 0 -22 8 -25 20
-3 11 -11 20 -18 20 -7 0 -20 11 -29 25 -9 14 -21 25 -27 25 -5 0 -21 12 -34
26 -15 16 -31 24 -40 20 -14 -5 -19 4 -16 32 1 6 -7 12 -17 12 -11 0 -26 10
-34 22 -8 11 -23 22 -34 23 -29 2 -44 14 -37 30 3 9 -1 15 -9 15 -14 0 -40 20
-97 73 -13 12 -20 15 -16 7 4 -8 -8 2 -27 23 -19 20 -38 37 -43 37 -4 0 -18
11 -31 25 -13 14 -32 25 -42 25 -11 0 -22 9 -25 20 -3 11 -12 20 -21 20 -9 0
-16 7 -16 15 0 17 -34 37 -58 33 -11 -2 -18 5 -20 20 -2 12 -9 22 -17 22 -7 0
-20 11 -29 26 -10 14 -25 24 -34 23 -30 -3 -42 1 -42 12 0 19 -64 72 -95 79
-22 4 -29 11 -27 24 2 11 -1 15 -7 11 -6 -3 -11 -1 -11 4 0 6 -7 11 -15 11 -8
0 -15 6 -15 14 0 15 -21 26 -50 26 -10 0 -21 8 -25 18 -3 11 -17 24 -30 30
-14 6 -25 17 -25 23 0 6 -7 8 -16 5 -8 -3 -13 -2 -10 3 3 5 -5 12 -18 15 -13
3 -26 15 -29 26 -4 15 -13 20 -37 20 -23 0 -33 5 -37 19 -6 22 -29 34 -45 24
-6 -3 -8 -1 -4 5 7 12 -31 42 -55 42 -9 0 -23 9 -30 20 -8 12 -27 22 -44 23
-17 1 -38 12 -47 23 -12 15 -29 22 -53 22 -26 0 -43 7 -60 26 -16 17 -35 26
-55 26 -19 0 -30 5 -30 14 0 15 -21 26 -48 26 -15 0 -17 10 -14 77 3 57 8 80
20 89 13 9 17 34 20 115 2 77 7 108 19 121 8 10 13 26 10 38 -3 11 -1 23 4 26
5 3 9 28 9 56 0 34 6 58 17 70 11 12 16 37 17 81 l1 62 -869 1105 c-478 608
-874 1110 -880 1115 -18 15 -259 486 -262 512 -4 42 -248 384 -501 703 -249
315 -259 330 -734 1067 -471 730 -494 766 -974 1608 l-491 861 116 -12 c63 -7
162 -18 220 -25 l105 -11 105 -171 c58 -94 114 -181 125 -193 20 -22 270 -143
475 -230 l105 -45 101 -197 102 -197 5 -100 c15 -287 138 -591 326 -808 160
-185 387 -330 616 -393 94 -26 112 -28 300 -28 188 0 206 2 300 28 276 76 523
252 700 500 96 136 181 335 222 527 26 119 26 449 0 568 -60 279 -189 522
-377 711 -161 163 -362 273 -595 326 -80 19 -318 26 -441 14 l-51 -5 -720 815
c-795 900 -845 952 -1344 1386 -212 184 -387 324 -671 536 -371 277 -399 296
-784 524 -219 130 -610 354 -869 497 -258 142 -517 285 -575 317 -97 54 -136
68 -505 175 -220 64 -483 134 -585 156 -102 21 -197 45 -212 54 -14 8 -50 15
-80 15 -42 0 -59 5 -72 19 -13 14 -38 22 -84 27 -44 4 -73 13 -84 24 -13 14
-34 18 -88 19 -61 1 -74 4 -89 23 -15 18 -31 22 -99 26 -57 3 -82 8 -82 17 0
20 -25 25 -117 25 -77 0 -88 2 -116 26 -31 26 -34 26 -140 21 -107 -5 -108 -4
-117 19 -9 24 -11 24 -144 24 -127 0 -136 1 -147 21 -8 15 -18 20 -35 16 -13
-2 -21 -1 -19 4 3 4 -45 8 -106 8 -100 1 -113 3 -128 22 -17 21 -27 22 -317
26 -164 3 -302 3 -305 -1z m466 -71 c390 -35 905 -126 1365 -241 612 -153
1200 -351 1745 -589 679 -297 1064 -507 1969 -1075 209 -131 329 -221 717
-536 335 -273 342 -279 723 -667 417 -426 400 -407 981 -1092 219 -258 421
-496 449 -528 49 -57 50 -59 31 -74 -19 -15 -273 -140 -432 -213 l-73 -33 -42
40 c-172 161 -462 473 -858 923 -485 552 -962 988 -1515 1385 -653 467 -1216
797 -1825 1070 -267 120 -791 342 -1129 480 -148 60 -165 65 -179 51 -15 -14
-13 -19 13 -47 43 -45 553 -464 644 -528 42 -30 142 -99 223 -153 339 -226
671 -492 922 -738 205 -201 331 -344 488 -551 55 -74 122 -161 149 -195 109
-138 387 -580 629 -999 73 -126 172 -297 220 -380 148 -254 405 -706 560 -985
57 -102 210 -392 340 -645 335 -652 434 -812 1475 -2375 834 -1252 1283 -1908
1529 -2235 33 -44 136 -181 230 -305 93 -124 203 -276 243 -338 l74 -113 -21
-97 c-59 -272 -211 -806 -330 -1155 -339 -1002 -648 -1464 -1275 -1913 -131
-94 -407 -264 -429 -264 -18 0 3 24 85 95 212 185 393 460 479 730 114 358
119 776 14 1165 -55 202 -207 543 -344 770 -204 339 -381 571 -1075 1410 -432
523 -566 688 -780 961 -104 134 -244 311 -311 395 -66 84 -199 255 -295 380
-467 610 -1039 1313 -1374 1689 -351 394 -1013 1069 -1285 1310 -737 652
-1407 1106 -2006 1358 -224 94 -515 183 -758 232 -638 128 -1191 108 -1766
-66 -557 -168 -1321 -587 -1955 -1073 -156 -119 -235 -184 -446 -365 -139
-119 -461 -435 -654 -641 -202 -216 -219 -233 -452 -505 -209 -243 -260 -302
-334 -391 -37 -43 -119 -142 -184 -218 -260 -307 -381 -455 -630 -767 -143
-179 -281 -352 -306 -385 -25 -32 -122 -156 -214 -274 -93 -118 -191 -244
-219 -280 -83 -107 -191 -244 -360 -455 -139 -174 -240 -296 -626 -759 -246
-295 -563 -703 -777 -1001 -443 -618 -693 -1166 -793 -1739 -77 -449 -36 -792
136 -1137 51 -103 165 -265 259 -369 l86 -95 -30 -3 c-22 -2 -70 16 -163 61
-153 73 -277 154 -404 260 -106 88 -337 324 -415 422 -285 361 -481 754 -623
1250 -54 185 -91 365 -141 680 -50 319 -70 418 -115 585 -51 186 -66 281 -49
312 19 38 84 122 249 323 394 481 807 1026 1124 1480 88 126 227 327 310 445
351 505 747 1117 986 1525 208 354 524 903 757 1314 148 261 357 628 538 946
163 286 263 463 400 710 806 1450 1242 2092 1820 2684 668 682 1548 1308 2345
1666 561 252 1107 403 1680 465 221 24 293 27 560 29 173 0 338 -5 445 -14z
m8542 -4806 c254 -28 488 -143 679 -334 219 -219 345 -482 384 -805 26 -216
-6 -461 -87 -665 -307 -773 -1200 -1036 -1823 -538 -229 184 -392 448 -454
738 -99 460 20 910 329 1243 179 193 448 333 695 361 109 12 169 12 277 0z
m-6757 -2619 c47 -11 122 -38 166 -60 66 -32 95 -54 153 -116 54 -58 71 -83
71 -105 0 -33 -6 -35 -120 -43 -161 -10 -352 -105 -581 -288 -53 -42 -193
-160 -310 -264 -357 -313 -519 -434 -694 -519 -285 -139 -522 -132 -742 22
-59 41 -172 158 -249 256 -41 53 -55 56 -144 32 -73 -20 -177 -19 -256 2 l-63
17 -27 -24 c-14 -14 -45 -53 -69 -86 -67 -94 -204 -216 -293 -262 -107 -56
-180 -75 -282 -75 -108 0 -189 22 -315 84 -186 92 -310 192 -724 583 -128 122
-272 249 -320 283 -144 105 -288 172 -491 229 -104 29 -120 38 -120 64 0 51
185 165 335 208 130 38 328 65 417 57 24 -2 79 -6 123 -10 87 -7 247 -37 335
-62 77 -22 365 -132 490 -188 191 -85 463 -192 559 -219 338 -97 722 -107
1036 -26 126 33 387 123 561 195 548 227 689 275 914 314 158 28 181 29 380
26 136 -3 194 -8 260 -25z m-5343 -1168 c356 -120 826 -353 1228 -608 89 -57
110 -75 110 -94 0 -65 -322 -127 -603 -117 -212 7 -331 46 -482 158 -139 103
-344 331 -489 543 -64 94 -76 136 -43 156 34 21 151 5 279 -38z m5831 32 c12
-4 22 -13 22 -20 0 -8 -23 -60 -51 -117 -175 -349 -463 -611 -754 -686 -228
-59 -547 -30 -784 71 l-44 19 24 25 c101 109 861 531 1122 623 194 68 392 104
465 85z m-2898 -776 c73 -17 169 -67 212 -110 54 -54 105 -166 129 -284 17
-82 20 -119 14 -210 -7 -110 -7 -111 20 -142 50 -60 68 -52 261 116 143 124
235 174 328 180 126 8 220 -27 413 -154 202 -133 335 -196 485 -230 55 -13
103 -15 207 -11 156 5 259 31 400 97 167 80 259 159 576 491 141 148 183 174
285 174 220 -1 389 -239 366 -515 -12 -141 -49 -238 -141 -365 -83 -116 -164
-204 -497 -542 -183 -186 -300 -312 -304 -328 -4 -15 -2 -55 4 -88 28 -175
-42 -263 -221 -274 -139 -9 -270 23 -453 112 -201 97 -354 228 -672 572 -116
126 -234 249 -264 274 -160 137 -271 182 -394 160 -184 -34 -311 -171 -322
-348 -4 -56 -1 -78 11 -97 16 -23 22 -24 134 -28 103 -3 125 -6 175 -30 115
-54 175 -136 192 -264 20 -141 -68 -213 -599 -492 -115 -61 -255 -129 -310
-153 -92 -39 -107 -43 -185 -43 -103 1 -165 20 -374 115 -297 136 -434 220
-578 349 -77 70 -108 126 -108 196 1 63 25 116 85 182 96 106 197 153 337 156
55 1 92 6 100 14 17 17 16 103 -1 163 -27 96 -137 198 -268 250 -78 31 -217
33 -283 5 -97 -42 -166 -104 -341 -303 -393 -446 -566 -608 -770 -721 -214
-118 -486 -153 -600 -78 -69 46 -86 79 -93 185 -11 162 -13 166 -320 456 -178
168 -294 301 -397 454 -179 266 -230 455 -179 657 32 124 122 254 219 316 39
24 55 28 115 28 47 0 84 -7 111 -19 42 -19 115 -91 210 -206 184 -223 428
-410 634 -485 204 -75 401 -80 595 -16 146 48 263 105 426 206 164 102 262
146 357 160 154 21 262 -28 409 -189 95 -105 179 -136 238 -90 l26 21 -2 227
-3 227 38 76 c47 96 100 141 221 185 88 32 236 37 346 11z m-4651 -1488 c24
-12 36 -45 62 -165 12 -55 36 -140 54 -190 44 -121 191 -453 314 -710 108
-226 141 -310 141 -362 0 -36 -29 -73 -57 -73 -45 1 -180 83 -327 200 -95 76
-200 144 -261 170 -90 38 -171 17 -209 -56 -19 -36 -21 -56 -21 -254 0 -241
13 -347 70 -565 76 -291 151 -443 330 -660 249 -303 544 -500 956 -639 594
-201 1191 -229 1810 -85 143 33 445 129 655 209 399 152 521 192 724 241 368
89 477 69 1254 -230 554 -213 1008 -311 1436 -311 322 0 608 49 971 166 642
206 980 473 1219 959 104 211 167 411 210 664 39 229 22 345 -55 377 -77 32
-160 8 -411 -116 -215 -107 -275 -130 -341 -130 -59 0 -101 46 -88 98 3 15 62
142 130 282 145 299 225 523 310 863 71 286 95 329 179 313 43 -8 92 -58 174
-176 433 -625 706 -916 1108 -1183 159 -105 284 -174 411 -228 54 -23 108 -51
120 -63 11 -11 56 -84 99 -161 43 -77 106 -192 142 -255 235 -421 407 -817
481 -1107 83 -325 95 -815 31 -1276 -11 -76 -24 -155 -30 -177 -10 -39 -59
-100 -79 -100 -16 0 -48 57 -56 99 -14 81 -80 303 -122 416 -57 150 -173 382
-251 500 -83 124 -196 257 -348 407 -248 245 -422 361 -539 359 -67 0 -109
-22 -143 -72 -33 -48 -26 -113 37 -319 139 -458 254 -745 482 -1200 202 -404
254 -525 348 -808 116 -351 165 -605 183 -949 18 -340 -3 -677 -68 -1063 -105
-631 -360 -1209 -689 -1558 -91 -97 -168 -150 -190 -132 -22 19 -19 54 25 245
137 592 130 1153 -20 1615 -101 310 -258 516 -357 468 -68 -33 -130 -169 -152
-334 -6 -43 -15 -194 -21 -334 -15 -403 -34 -511 -114 -675 -67 -135 -99 -175
-179 -220 -95 -52 -172 -69 -290 -61 -76 5 -98 4 -102 -6 -3 -8 23 -77 59
-154 149 -325 252 -716 296 -1118 50 -467 -57 -1165 -257 -1676 -177 -450
-439 -879 -679 -1111 -152 -147 -256 -201 -285 -147 -21 39 -8 218 21 313 6
17 23 95 39 175 68 336 99 655 81 837 -47 476 -266 978 -555 1269 -94 94 -141
124 -210 132 -34 3 -47 -1 -73 -23 -39 -33 -39 -43 -7 -187 58 -257 75 -454
75 -868 0 -618 -75 -1313 -225 -2094 -117 -608 -254 -1008 -455 -1326 -97
-153 -210 -283 -279 -320 -22 -11 -27 -10 -43 10 -18 22 -19 37 -12 189 8 200
-5 350 -47 555 -62 304 -158 524 -250 572 -30 15 -35 15 -66 0 -18 -9 -36 -23
-40 -32 -3 -9 3 -68 13 -133 27 -165 27 -652 1 -821 -80 -509 -283 -1039 -558
-1456 -324 -491 -778 -912 -1229 -1139 -350 -175 -585 -240 -910 -251 -194 -7
-290 4 -441 52 -244 77 -485 250 -651 467 -85 112 -178 293 -166 327 2 6 27
-6 56 -25 62 -42 205 -99 291 -116 78 -15 287 -7 366 15 82 23 196 78 271 131
165 118 321 370 388 625 44 168 51 240 51 505 -1 209 -5 274 -24 395 -56 360
-165 740 -311 1085 -63 149 -201 417 -270 524 -74 114 -164 211 -196 211 -32
0 -42 -37 -64 -250 -34 -322 -24 -747 24 -975 8 -39 18 -97 21 -131 7 -55 5
-63 -18 -89 -21 -26 -28 -28 -49 -18 -70 32 -232 214 -327 367 -167 272 -267
525 -376 950 -55 213 -259 1233 -315 1571 -131 792 -117 1154 57 1527 39 84
44 100 32 114 -42 51 -273 -60 -406 -197 -90 -92 -138 -160 -194 -274 -129
-264 -181 -540 -181 -955 0 -404 45 -683 173 -1062 53 -159 56 -175 35 -203
-61 -84 -393 155 -610 439 -490 642 -833 1825 -777 2679 7 95 16 210 21 257
35 300 128 607 269 887 88 177 81 193 -44 91 -160 -131 -226 -168 -302 -168
-42 0 -49 4 -113 68 -57 57 -77 88 -128 192 -67 137 -138 334 -170 475 -35
152 -90 490 -112 689 -21 190 -29 226 -55 226 -33 0 -128 -107 -172 -195 -41
-81 -96 -243 -118 -350 -38 -177 -48 -326 -42 -565 9 -329 50 -580 134 -825
24 -71 52 -151 61 -178 19 -56 9 -100 -24 -105 -30 -4 -154 96 -289 232 -382
385 -613 904 -696 1564 -27 209 -37 705 -20 917 24 279 66 525 130 740 185
633 351 1034 674 1635 269 500 347 650 358 689 12 41 12 45 -9 62 -32 25 -98
33 -221 26 -177 -10 -382 -65 -500 -134 -129 -76 -282 -243 -423 -463 -112
-173 -291 -513 -453 -860 -78 -166 -102 -207 -116 -193 -11 12 -37 157 -55
307 -18 152 -20 577 -5 727 58 546 213 1051 424 1384 175 275 475 598 927 995
262 231 390 357 500 490 136 166 302 375 425 536 142 184 231 280 285 306 39
19 92 23 119 8z m6201 -989 c128 -53 276 -158 555 -396 301 -256 474 -373 674
-456 373 -154 684 -155 1153 -3 92 30 176 54 186 54 48 0 53 -44 18 -148 -79
-232 -188 -343 -472 -486 -450 -225 -1016 -337 -1586 -314 -707 28 -1312 262
-1736 671 -108 106 -152 172 -152 234 0 37 5 46 46 80 25 22 116 75 202 119
364 184 621 372 785 572 33 41 74 83 91 94 45 28 139 20 236 -21z m-3103 14
c53 -16 50 -13 239 -213 98 -105 315 -248 663 -437 194 -105 221 -123 221
-149 0 -33 -71 -138 -159 -235 -170 -188 -424 -364 -699 -486 -580 -257 -1134
-363 -1610 -310 -603 67 -1155 349 -1411 719 -75 109 -130 243 -104 259 4 3
51 -13 103 -35 122 -50 205 -73 360 -97 321 -50 600 -31 870 59 223 75 342
158 650 455 299 288 505 426 703 469 83 19 114 19 174 1z m-9808 -939 c32 -17
94 -83 114 -123 28 -54 65 -189 77 -281 24 -171 -1 -331 -68 -436 -31 -51
-105 -113 -252 -216 -58 -40 -184 -135 -280 -210 -317 -247 -544 -416 -694
-514 -179 -118 -180 -120 -180 -281 0 -177 67 -489 214 -1010 178 -628 298
-927 601 -1498 343 -645 899 -1438 1444 -2057 399 -454 1286 -1357 2355 -2400
448 -437 1635 -1621 1905 -1900 87 -91 238 -246 335 -345 710 -731 1139 -1209
1564 -1744 125 -157 199 -314 510 -1086 251 -621 371 -968 479 -1395 56 -217
59 -237 45 -246 -7 -4 -14 -2 -16 4 -7 22 -181 262 -280 387 -112 141 -186
236 -332 425 -57 74 -161 207 -230 295 -69 88 -191 243 -270 344 -281 357
-497 618 -675 817 -234 261 -712 776 -1000 1078 -419 440 -1377 1384 -1775
1751 -102 94 -237 220 -300 280 -63 61 -198 189 -300 285 -497 470 -1628 1595
-2010 2000 -320 338 -771 848 -1066 1205 -363 439 -512 629 -676 862 -401 572
-606 948 -851 1568 -195 493 -353 988 -466 1460 -70 295 -81 342 -151 685 -38
184 -79 379 -91 432 -13 54 -21 99 -18 101 2 2 81 68 174 148 981 835 2012
1626 2123 1629 7 0 25 -6 41 -14z m22361 -101 c270 -113 511 -275 1180 -793
201 -156 817 -647 958 -765 l84 -69 -7 -72 c-39 -410 -115 -836 -235 -1316
-128 -512 -255 -886 -441 -1295 -356 -786 -772 -1433 -1548 -2405 -192 -241
-354 -437 -766 -926 -661 -784 -1208 -1368 -2120 -2265 -402 -395 -1231 -1208
-1575 -1543 -124 -121 -465 -461 -759 -755 -577 -580 -825 -841 -1186 -1251
-55 -62 -120 -136 -146 -164 -131 -147 -381 -459 -605 -756 -149 -197 -241
-323 -448 -616 -28 -40 -132 -193 -231 -340 l-180 -269 -3 80 c-6 157 56 535
129 781 66 223 184 527 349 900 186 418 273 572 513 904 251 347 406 536 808
985 1114 1244 2000 2171 2849 2978 375 356 1185 1168 1386 1387 604 662 1214
1426 1699 2130 32 47 102 148 155 225 291 419 579 928 805 1419 157 343 201
466 284 802 91 369 131 668 131 990 l0 202 -67 51 c-38 28 -91 70 -119 93
-259 215 -838 678 -966 772 -60 43 -108 84 -109 90 0 6 0 36 1 66 0 30 -9 145
-20 255 -27 246 -24 301 25 425 55 140 51 134 83 111 15 -10 56 -31 92 -46z
m-1215 -4380 c237 -62 373 -298 310 -540 -34 -127 -120 -230 -242 -288 -65
-30 -74 -32 -188 -32 -113 0 -123 2 -179 30 -91 46 -160 114 -203 203 -37 74
-38 79 -38 186 0 104 2 115 32 179 94 199 314 312 508 262z m-19565 -36 c90
-43 148 -102 193 -197 30 -64 32 -73 32 -187 0 -118 -1 -121 -37 -196 -72
-147 -211 -229 -388 -229 -183 1 -364 139 -402 308 -20 89 -15 216 11 285 41
106 171 217 287 246 22 6 82 9 134 7 85 -2 103 -6 170 -37z m870 -1101 c112
-33 221 -124 265 -221 111 -245 -17 -527 -276 -608 -183 -57 -397 24 -488 184
-80 141 -86 309 -17 445 85 168 318 258 516 200z m17799 -20 c77 -29 160 -113
191 -193 81 -211 -6 -443 -200 -534 -47 -22 -69 -26 -150 -26 -84 0 -102 3
-153 28 -201 99 -281 341 -177 536 57 107 152 184 257 211 54 13 166 2 232
-22z m-17055 -1128 c181 -29 324 -180 357 -375 35 -202 -102 -450 -301 -547
-206 -101 -429 -70 -576 79 -56 56 -85 123 -102 234 -17 109 13 269 64 351
121 191 343 293 558 258z m16408 -17 c173 -78 277 -240 278 -435 0 -272 -196
-468 -467 -468 -254 1 -432 174 -450 436 -14 206 111 391 317 473 75 29 250
26 322 -6z"/>
<path d="M20140 36184 c-250 -28 -354 -47 -585 -106 -785 -198 -1657 -750
-2789 -1763 -99 -88 -218 -194 -265 -235 -128 -111 -452 -439 -565 -570 -248
-289 -554 -739 -1106 -1630 -132 -213 -552 -922 -625 -1055 -21 -38 -119 -211
-217 -383 -184 -322 -208 -371 -208 -428 0 -67 95 -99 211 -70 110 28 201 105
344 291 59 77 210 270 669 855 462 589 1049 1225 1551 1680 458 415 892 755
1240 972 806 502 1535 713 2405 695 557 -12 925 -88 1480 -308 614 -243 1249
-642 1830 -1148 145 -127 416 -380 505 -473 187 -192 557 -598 730 -798 55
-63 190 -218 300 -345 111 -126 297 -342 414 -480 597 -702 732 -853 800 -897
78 -49 146 -27 144 48 -2 86 -569 1151 -981 1844 -629 1060 -1226 1855 -1845
2456 -593 577 -1297 1094 -1997 1468 -91 49 -230 124 -310 166 -226 122 -362
162 -660 195 -146 16 -405 27 -470 19z"/>
<path d="M17310 22348 c-80 -11 -247 -66 -332 -109 -184 -93 -403 -288 -599
-534 -298 -373 -471 -823 -508 -1316 -23 -308 48 -619 189 -830 96 -144 169
-185 199 -111 6 15 20 106 31 203 45 398 134 714 295 1044 145 298 341 569
734 1015 261 297 341 426 326 527 -16 105 -124 141 -335 111z"/>
<path d="M23000 22252 c-91 -31 -141 -62 -206 -126 -49 -49 -64 -71 -71 -107
-19 -92 6 -132 127 -207 168 -103 394 -303 523 -462 295 -365 487 -835 577
-1410 33 -214 57 -333 73 -372 22 -52 58 -73 124 -69 86 4 194 229 260 536 26
121 28 145 27 360 -1 248 -12 333 -70 518 -99 313 -346 723 -583 970 -162 169
-333 297 -468 352 -90 37 -229 45 -313 17z"/>
<path d="M20123 18929 c-184 -34 -278 -223 -330 -660 -22 -187 -25 -939 -5
-1154 36 -383 90 -603 183 -750 149 -236 376 -209 479 58 80 205 95 368 95
1037 0 443 -3 565 -18 708 -43 416 -102 606 -221 710 -57 50 -111 65 -183 51z"/>
<path d="M31498 26752 c-19 -2 -29 -10 -33 -25 -20 -94 -25 -138 -19 -149 4
-6 6 -84 5 -172 -2 -145 -1 -159 13 -147 12 10 16 32 16 86 0 59 4 75 20 90
15 14 20 31 20 70 0 39 5 56 20 70 12 11 20 31 20 49 0 21 7 36 21 44 15 10
19 21 17 45 -3 28 -7 32 -38 37 -19 3 -47 4 -62 2z"/>
</g>
</svg>
